999
dxfrw 0.6.3
  0
SECTION
  2
HEADER
  9
$ACADVER
  1
AC1021
  9
$DWGCODEPAGE
  3
ANSI_1252
  9
$INSBASE
 10
0
 20
0
 30
0
  9
$EXTMIN
 10
-35.125
 20
-135
 30
0
  9
$EXTMAX
 10
230.25
 20
23.125
 30
0
  9
$LIMMIN
 10
0
 20
0
  9
$LIMMAX
 10
420
 20
297
  9
$ORTHOMODE
 70
    0
  9
$REGENMODE
 70
    1
  9
$FILLMODE
 70
    1
  9
$QTEXTMODE
 70
    0
  9
$MIRRTEXT
 70
    0
  9
$LTSCALE
 40
1
  9
$ATTMODE
 70
    0
  9
$TEXTSIZE
 40
2.5
  9
$TRACEWID
 40
15.68
  9
$TEXTSTYLE
  7
STANDARD
  9
$CLAYER
  8
guide
  9
$CELTYPE
  6
BYLAYER
  9
$CECOLOR
 62
  256
  9
$CELTSCALE
 40
1
  9
$DISPSILH
 70
    0
  9
$DIMSCALE
 40
1
  9
$DIMASZ
 40
2.5
  9
$DIMEXO
 40
0.625
  9
$DIMDLI
 40
3.75
  9
$DIMRND
 40
0
  9
$DIMDLE
 40
0
  9
$DIMEXE
 40
1.25
  9
$DIMTP
 40
0
  9
$DIMTM
 40
0
  9
$DIMTXT
 40
2.5
  9
$DIMCEN
 40
2.5
  9
$DIMTSZ
 40
0
  9
$DIMTOL
 70
    0
  9
$DIMLIM
 70
    0
  9
$DIMTIH
 70
    0
  9
$DIMTOH
 70
    0
  9
$DIMSE1
 70
    0
  9
$DIMSE2
 70
    0
  9
$DIMTAD
 70
    1
  9
$DIMZIN
 70
    8
  9
$DIMBLK
  1

  9
$DIMASO
 70
    1
  9
$DIMSHO
 70
    1
  9
$DIMPOST
  1

  9
$DIMAPOST
  1

  9
$DIMALT
 70
    0
  9
$DIMALTD
 70
    3
  9
$DIMALTF
 40
0.03937
  9
$DIMLFAC
 40
1
  9
$DIMTOFL
 70
    1
  9
$DIMTVP
 40
0
  9
$DIMTIX
 70
    0
  9
$DIMSOXD
 70
    0
  9
$DIMSAH
 70
    0
  9
$DIMBLK1
  1

  9
$DIMBLK2
  1

  9
$DIMSTYLE
  2
STANDARD
  9
$DIMCLRD
 70
    0
  9
$DIMCLRE
 70
    0
  9
$DIMCLRT
 70
    0
  9
$DIMTFAC
 40
1
  9
$DIMGAP
 40
0.625
  9
$DIMJUST
 70
    0
  9
$DIMSD1
 70
    0
  9
$DIMSD2
 70
    0
  9
$DIMTOLJ
 70
    0
  9
$DIMTZIN
 70
    8
  9
$DIMALTZ
 70
    0
  9
$DIMALTTZ
 70
    0
  9
$DIMUPT
 70
    0
  9
$DIMDEC
 70
    2
  9
$DIMTDEC
 70
    2
  9
$DIMALTU
 70
    2
  9
$DIMALTTD
 70
    3
  9
$DIMTXSTY
  7
STANDARD
  9
$DIMAUNIT
 70
    0
  9
$DIMADEC
 70
    0
  9
$DIMALTRND
 40
0
  9
$DIMAZIN
 70
    0
  9
$DIMDSEP
 70
   44
  9
$DIMATFIT
 70
    3
  9
$DIMFRAC
 70
    0
  9
$DIMLDRBLK
  1
STANDARD
  9
$DIMLUNIT
 70
    2
  9
$DIMLWD
 70
   -2
  9
$DIMLWE
 70
   -2
  9
$DIMTMOVE
 70
    0
  9
$DIMFXL
 40
1
  9
$DIMFXLON
 70
    0
  9
$DIMJOGANG
 40
0.7854
  9
$DIMTFILL
 70
    0
  9
$DIMTFILLCLR
 70
    0
  9
$DIMARCSYM
 70
    0
  9
$DIMLTYPE
  6

  9
$DIMLTEX1
  6

  9
$DIMLTEX2
  6

  9
$LUNITS
 70
    2
  9
$LUPREC
 70
    4
  9
$SKETCHINC
 40
1
  9
$FILLETRAD
 40
0
  9
$AUNITS
 70
    0
  9
$AUPREC
 70
    2
  9
$MENU
  1
.
  9
$ELEVATION
 40
0
  9
$PELEVATION
 40
0
  9
$THICKNESS
 40
0
  9
$LIMCHECK
 70
    0
  9
$CHAMFERA
 40
0
  9
$CHAMFERB
 40
0
  9
$CHAMFERC
 40
0
  9
$CHAMFERD
 40
0
  9
$SKPOLY
 70
    0
  9
$USRTIMER
 70
    1
  9
$ANGBASE
 50
0
  9
$ANGDIR
 70
    0
  9
$PDMODE
 70
   34
  9
$PDSIZE
 40
0
  9
$PLINEWID
 40
0
  9
$SPLFRAME
 70
    0
  9
$SPLINETYPE
 70
    2
  9
$SPLINESEGS
 70
    8
  9
$HANDSEED
  5
20000
  9
$SURFTAB1
 70
    6
  9
$SURFTAB2
 70
    6
  9
$SURFTYPE
 70
    6
  9
$SURFU
 70
    6
  9
$SURFV
 70
    6
  9
$UCSBASE
  2

  9
$UCSNAME
  2

  9
$UCSORG
 10
0
 20
0
 30
0
  9
$UCSXDIR
 10
1
 20
0
 30
0
  9
$UCSYDIR
 10
0
 20
1
 30
0
  9
$UCSORTHOREF
  2

  9
$UCSORTHOVIEW
 70
    0
  9
$UCSORGTOP
 10
0
 20
0
 30
0
  9
$UCSORGBOTTOM
 10
0
 20
0
 30
0
  9
$UCSORGLEFT
 10
0
 20
0
 30
0
  9
$UCSORGRIGHT
 10
0
 20
0
 30
0
  9
$UCSORGFRONT
 10
0
 20
0
 30
0
  9
$UCSORGBACK
 10
0
 20
0
 30
0
  9
$PUCSBASE
  2

  9
$PUCSNAME
  2

  9
$PUCSORG
 10
0
 20
0
 30
0
  9
$PUCSXDIR
 10
1
 20
0
 30
0
  9
$PUCSYDIR
 10
0
 20
1
 30
0
  9
$PUCSORTHOREF
  2

  9
$PUCSORTHOVIEW
 70
    0
  9
$PUCSORGTOP
 10
0
 20
0
 30
0
  9
$PUCSORGBOTTOM
 10
0
 20
0
 30
0
  9
$PUCSORGLEFT
 10
0
 20
0
 30
0
  9
$PUCSORGRIGHT
 10
0
 20
0
 30
0
  9
$PUCSORGFRONT
 10
0
 20
0
 30
0
  9
$PUCSORGBACK
 10
0
 20
0
 30
0
  9
$USERI1
 70
    0
  9
$USERI2
 70
    0
  9
$USERI3
 70
    0
  9
$USERI4
 70
    0
  9
$USERI5
 70
    0
  9
$USERR1
 40
0
  9
$USERR2
 40
0
  9
$USERR3
 40
0
  9
$USERR4
 40
0
  9
$USERR5
 40
0
  9
$WORLDVIEW
 70
    1
  9
$SHADEDGE
 70
    3
  9
$SHADEDIF
 70
   70
  9
$TILEMODE
 70
    1
  9
$MAXACTVP
 70
   64
  9
$PINSBASE
 10
0
 20
0
 30
0
  9
$PLIMCHECK
 70
    0
  9
$PEXTMIN
 10
0
 20
0
 30
0
  9
$PEXTMAX
 10
0
 20
0
 30
0
  9
$GRIDMODE
 70
    1
  9
$SNAPSTYLE
 70
    0
  9
$PLIMMIN
 10
0
 20
0
  9
$PLIMMAX
 10
210
 20
297
  9
$UNITMODE
 70
    0
  9
$VISRETAIN
 70
    1
  9
$PLINEGEN
 70
    0
  9
$PSLTSCALE
 70
    1
  9
$TREEDEPTH
 70
 3020
  9
$CMLSTYLE
  2
Standard
  9
$CMLJUST
 70
    0
  9
$CMLSCALE
 40
20
  9
$PROXYGRAPHICS
 70
    1
  9
$MEASUREMENT
 70
    1
  9
$CELWEIGHT
370
   -1
  9
$ENDCAPS
280
    0
  9
$JOINSTYLE
280
    0
  9
$LWDISPLAY
290
    0
  9
$INSUNITS
 70
    4
  9
$HYPERLINKBASE
  1

  9
$STYLESHEET
  1

  9
$XEDIT
290
    1
  9
$CEPSNTYPE
380
    0
  9
$PSTYLEMODE
290
    1
  9
$EXTNAMES
290
    1
  9
$PSVPSCALE
 40
1
  9
$OLESTARTUP
290
    0
  9
$SORTENTS
280
  127
  9
$INDEXCTL
280
    0
  9
$HIDETEXT
280
    1
  9
$XCLIPFRAME
290
    0
  9
$HALOGAP
280
    0
  9
$OBSCOLOR
 70
  257
  9
$OBSLTYPE
280
    0
  9
$INTERSECTIONDISPLAY
280
    0
  9
$INTERSECTIONCOLOR
 70
  257
  9
$DIMASSOC
280
    1
  9
$PROJECTNAME
  1

  9
$CAMERADISPLAY
290
    0
  9
$LENSLENGTH
 40
50
  9
$CAMERAHEIGHT
 40
0
  9
$STEPSPERSEC
 40
2
  9
$STEPSIZE
 40
50
  9
$3DDWFPREC
 40
2
  9
$PSOLWIDTH
 40
5
  9
$PSOLHEIGHT
 40
80
  9
$LOFTANG1
 40
1.570796326794897
  9
$LOFTANG2
 40
1.570796326794897
  9
$LOFTMAG1
 40
0
  9
$LOFTMAG2
 40
0
  9
$LOFTPARAM
 70
    7
  9
$LOFTNORMALS
280
    1
  9
$LATITUDE
 40
1
  9
$LONGITUDE
 40
1
  9
$NORTHDIRECTION
 40
0
  9
$TIMEZONE
 70
-8000
  9
$LIGHTGLYPHDISPLAY
280
    1
  9
$TILEMODELIGHTSYNCH
280
    1
  9
$SOLIDHIST
280
    1
  9
$SHOWHIST
280
    1
  9
$DWFFRAME
280
    2
  9
$DGNFRAME
280
    0
  9
$REALWORLDSCALE
290
    1
  9
$INTERFERECOLOR
 62
    1
  9
$CSHADOW
280
    0
  9
$SHADOWPLANELOCATION
 40
0
  0
ENDSEC
  0
SECTION
  2
CLASSES
  0
ENDSEC
  0
SECTION
  2
TABLES
  0
TABLE
  2
VPORT
  5
8
330
0
100
AcDbSymbolTable
 70
    1
  0
VPORT
  5
31
330
2
100
AcDbSymbolTableRecord
100
AcDbViewportTableRecord
  2
*ACTIVE
 70
    0
 10
0
 20
0
 11
1
 21
1
 12
114.775725595088
 22
18.57959542679107
 13
0
 23
0
 14
10
 24
10
 15
10
 25
10
 16
0
 26
0
 36
1
 17
0
 27
0
 37
0
 40
178.5400175923592
 41
1.544334975369458
 42
50
 43
0
 44
0
 50
0
 51
0
 71
    0
 72
  100
 73
    1
 74
    3
 75
    0
 76
    1
 77
    0
 78
    0
281
    0
 65
    1
110
0
120
0
130
0
111
1
121
0
131
0
112
0
122
1
132
0
 79
    0
146
0
348
10020
 60
    7
 61
    5
292
1
282
    1
141
0
142
0
 63
  250
421
3358443
  0
ENDTAB
  0
TABLE
  2
LTYPE
  5
5
330
0
100
AcDbSymbolTable
 70
    4
  0
LTYPE
  5
14
330
5
100
AcDbSymbolTableRecord
100
AcDbLinetypeTableRecord
  2
ByBlock
 70
    0
  3

 72
   65
 73
    0
 40
0
  0
LTYPE
  5
15
330
5
100
AcDbSymbolTableRecord
100
AcDbLinetypeTableRecord
  2
ByLayer
 70
    0
  3

 72
   65
 73
    0
 40
0
  0
LTYPE
  5
16
330
5
100
AcDbSymbolTableRecord
100
AcDbLinetypeTableRecord
  2
Continuous
 70
    0
  3
Solid line
 72
   65
 73
    0
 40
0
  0
LTYPE
  5
32
330
5
100
AcDbSymbolTableRecord
100
AcDbLinetypeTableRecord
  2
DOT
 70
    0
  3
Dot . . . . . . . . . . . . . . . . . . . . . .
 72
   65
 73
    2
 40
6.35
 49
0
 74
    0
 49
-6.35
 74
    0
  0
LTYPE
  5
33
330
5
100
AcDbSymbolTableRecord
100
AcDbLinetypeTableRecord
  2
DOTTINY
 70
    0
  3
Dot (.15x) .....................................
 72
   65
 73
    2
 40
0.9525
 49
0
 74
    0
 49
-0.9525
 74
    0
  0
LTYPE
  5
34
330
5
100
AcDbSymbolTableRecord
100
AcDbLinetypeTableRecord
  2
DOT2
 70
    0
  3
Dot (.5x) .....................................
 72
   65
 73
    2
 40
3.175
 49
0
 74
    0
 49
-3.175
 74
    0
  0
LTYPE
  5
35
330
5
100
AcDbSymbolTableRecord
100
AcDbLinetypeTableRecord
  2
DOTX2
 70
    0
  3
Dot (2x) .  .  .  .  .  .  .  .  .  .  .  .  .
 72
   65
 73
    2
 40
12.7
 49
0
 74
    0
 49
-12.7
 74
    0
  0
LTYPE
  5
36
330
5
100
AcDbSymbolTableRecord
100
AcDbLinetypeTableRecord
  2
DASHED
 70
    0
  3
Dashed _ _ _ _ _ _ _ _ _ _ _ _ _ _ _ _ _
 72
   65
 73
    2
 40
19.05
 49
12.7
 74
    0
 49
-6.35
 74
    0
  0
LTYPE
  5
37
330
5
100
AcDbSymbolTableRecord
100
AcDbLinetypeTableRecord
  2
DASHEDTINY
 70
    0
  3
Dashed (.15x) _ _ _ _ _ _ _ _ _ _ _ _ _ _ _ _ _
 72
   65
 73
    2
 40
2.8575
 49
1.905
 74
    0
 49
-0.9525
 74
    0
  0
LTYPE
  5
38
330
5
100
AcDbSymbolTableRecord
100
AcDbLinetypeTableRecord
  2
DASHED2
 70
    0
  3
Dashed (.5x) _ _ _ _ _ _ _ _ _ _ _ _ _ _ _ _ _
 72
   65
 73
    2
 40
9.524999999999999
 49
6.35
 74
    0
 49
-3.175
 74
    0
  0
LTYPE
  5
39
330
5
100
AcDbSymbolTableRecord
100
AcDbLinetypeTableRecord
  2
DASHEDX2
 70
    0
  3
Dashed (2x) ____  ____  ____  ____  ____  ___
 72
   65
 73
    2
 40
38.09999999999999
 49
25.4
 74
    0
 49
-12.7
 74
    0
  0
LTYPE
  5
3A
330
5
100
AcDbSymbolTableRecord
100
AcDbLinetypeTableRecord
  2
DASHDOT
 70
    0
  3
Dash dot __ . __ . __ . __ . __ . __ . __ . __
 72
   65
 73
    4
 40
25.4
 49
12.7
 74
    0
 49
-6.35
 74
    0
 49
0
 74
    0
 49
-6.35
 74
    0
  0
LTYPE
  5
3B
330
5
100
AcDbSymbolTableRecord
100
AcDbLinetypeTableRecord
  2
DASHDOTTINY
 70
    0
  3
Dash dot (.15x) _._._._._._._._._._._._._._._.
 72
   65
 73
    4
 40
3.81
 49
1.905
 74
    0
 49
-0.9525
 74
    0
 49
0
 74
    0
 49
-0.9525
 74
    0
  0
LTYPE
  5
3C
330
5
100
AcDbSymbolTableRecord
100
AcDbLinetypeTableRecord
  2
DASHDOT2
 70
    0
  3
Dash dot (.5x) _._._._._._._._._._._._._._._.
 72
   65
 73
    4
 40
12.7
 49
6.35
 74
    0
 49
-3.175
 74
    0
 49
0
 74
    0
 49
-3.175
 74
    0
  0
LTYPE
  5
3D
330
5
100
AcDbSymbolTableRecord
100
AcDbLinetypeTableRecord
  2
DASHDOTX2
 70
    0
  3
Dash dot (2x) ____  .  ____  .  ____  .  ___
 72
   65
 73
    4
 40
50.8
 49
25.4
 74
    0
 49
-12.7
 74
    0
 49
0
 74
    0
 49
-12.7
 74
    0
  0
LTYPE
  5
3E
330
5
100
AcDbSymbolTableRecord
100
AcDbLinetypeTableRecord
  2
DIVIDE
 70
    0
  3
Divide ____ . . ____ . . ____ . . ____ . . ____
 72
   65
 73
    6
 40
31.75
 49
12.7
 74
    0
 49
-6.35
 74
    0
 49
0
 74
    0
 49
-6.35
 74
    0
 49
0
 74
    0
 49
-6.35
 74
    0
  0
LTYPE
  5
3F
330
5
100
AcDbSymbolTableRecord
100
AcDbLinetypeTableRecord
  2
DIVIDETINY
 70
    0
  3
Divide (.15x) __..__..__..__..__..__..__..__.._
 72
   65
 73
    6
 40
4.7625
 49
1.905
 74
    0
 49
-0.9525
 74
    0
 49
0
 74
    0
 49
-0.9525
 74
    0
 49
0
 74
    0
 49
-0.9525
 74
    0
  0
LTYPE
  5
40
330
5
100
AcDbSymbolTableRecord
100
AcDbLinetypeTableRecord
  2
DIVIDE2
 70
    0
  3
Divide (.5x) __..__..__..__..__..__..__..__.._
 72
   65
 73
    6
 40
15.875
 49
6.35
 74
    0
 49
-3.175
 74
    0
 49
0
 74
    0
 49
-3.175
 74
    0
 49
0
 74
    0
 49
-3.175
 74
    0
  0
LTYPE
  5
41
330
5
100
AcDbSymbolTableRecord
100
AcDbLinetypeTableRecord
  2
DIVIDEX2
 70
    0
  3
Divide (2x) ________  .  .  ________  .  .  _
 72
   65
 73
    6
 40
63.5
 49
25.4
 74
    0
 49
-12.7
 74
    0
 49
0
 74
    0
 49
-12.7
 74
    0
 49
0
 74
    0
 49
-12.7
 74
    0
  0
LTYPE
  5
42
330
5
100
AcDbSymbolTableRecord
100
AcDbLinetypeTableRecord
  2
BORDER
 70
    0
  3
Border __ __ . __ __ . __ __ . __ __ . __ __ .
 72
   65
 73
    6
 40
44.45
 49
12.7
 74
    0
 49
-6.35
 74
    0
 49
12.7
 74
    0
 49
-6.35
 74
    0
 49
0
 74
    0
 49
-6.35
 74
    0
  0
LTYPE
  5
43
330
5
100
AcDbSymbolTableRecord
100
AcDbLinetypeTableRecord
  2
BORDERTINY
 70
    0
  3
Border (.15x) __.__.__.__.__.__.__.__.__.__.__.
 72
   65
 73
    6
 40
6.6675
 49
1.905
 74
    0
 49
-0.9525
 74
    0
 49
1.905
 74
    0
 49
-0.9525
 74
    0
 49
0
 74
    0
 49
-0.9525
 74
    0
  0
LTYPE
  5
44
330
5
100
AcDbSymbolTableRecord
100
AcDbLinetypeTableRecord
  2
BORDER2
 70
    0
  3
Border (.5x) __.__.__.__.__.__.__.__.__.__.__.
 72
   65
 73
    6
 40
22.225
 49
6.35
 74
    0
 49
-3.175
 74
    0
 49
6.35
 74
    0
 49
-3.175
 74
    0
 49
0
 74
    0
 49
-3.175
 74
    0
  0
LTYPE
  5
45
330
5
100
AcDbSymbolTableRecord
100
AcDbLinetypeTableRecord
  2
BORDERX2
 70
    0
  3
Border (2x) ____  ____  .  ____  ____  .  ___
 72
   65
 73
    6
 40
88.89999999999999
 49
25.4
 74
    0
 49
-12.7
 74
    0
 49
25.4
 74
    0
 49
-12.7
 74
    0
 49
0
 74
    0
 49
-12.7
 74
    0
  0
LTYPE
  5
46
330
5
100
AcDbSymbolTableRecord
100
AcDbLinetypeTableRecord
  2
CENTER
 70
    0
  3
Center ____ _ ____ _ ____ _ ____ _ ____ _ ____
 72
   65
 73
    4
 40
50.8
 49
31.75
 74
    0
 49
-6.35
 74
    0
 49
6.35
 74
    0
 49
-6.35
 74
    0
  0
LTYPE
  5
47
330
5
100
AcDbSymbolTableRecord
100
AcDbLinetypeTableRecord
  2
CENTERTINY
 70
    0
  3
Center (.15x) ___ _ ___ _ ___ _ ___ _ ___ _ ___
 72
   65
 73
    4
 40
7.619999999999999
 49
4.7625
 74
    0
 49
-0.9525
 74
    0
 49
0.9525
 74
    0
 49
-0.9525
 74
    0
  0
LTYPE
  5
48
330
5
100
AcDbSymbolTableRecord
100
AcDbLinetypeTableRecord
  2
CENTER2
 70
    0
  3
Center (.5x) ___ _ ___ _ ___ _ ___ _ ___ _ ___
 72
   65
 73
    4
 40
28.575
 49
19.05
 74
    0
 49
-3.175
 74
    0
 49
3.175
 74
    0
 49
-3.175
 74
    0
  0
LTYPE
  5
49
330
5
100
AcDbSymbolTableRecord
100
AcDbLinetypeTableRecord
  2
CENTERX2
 70
    0
  3
Center (2x) ________  __  ________  __  _____
 72
   65
 73
    4
 40
101.6
 49
63.5
 74
    0
 49
-12.7
 74
    0
 49
12.7
 74
    0
 49
-12.7
 74
    0
  0
ENDTAB
  0
TABLE
  2
LAYER
  5
2
330
0
100
AcDbSymbolTable
 70
    1
  0
LAYER
  5
10
330
2
100
AcDbSymbolTableRecord
100
AcDbLayerTableRecord
  2
0
 70
    0
 62
    7
  6
CONTINUOUS
370
    0
390
F
  0
LAYER
  5
4A
330
2
100
AcDbSymbolTableRecord
100
AcDbLayerTableRecord
  2
guide
 70
    0
 62
    5
  6
CONTINUOUS
370
    0
390
F
1001
LibreCad
1070
    1
  0
ENDTAB
  0
TABLE
  2
STYLE
  5
3
330
0
100
AcDbSymbolTable
 70
    3
  0
STYLE
  5
4B
330
2
100
AcDbSymbolTableRecord
100
AcDbTextStyleTableRecord
  2
Standard
 70
    0
 40
0
 41
1
 50
0
 71
    0
 42
1
  3
txt
  4

  0
ENDTAB
  0
TABLE
  2
VIEW
  5
6
330
0
100
AcDbSymbolTable
 70
    0
  0
ENDTAB
  0
TABLE
  2
UCS
  5
7
330
0
100
AcDbSymbolTable
 70
    0
  0
ENDTAB
  0
TABLE
  2
APPID
  5
9
330
0
100
AcDbSymbolTable
 70
    1
  0
APPID
  5
12
330
9
100
AcDbSymbolTableRecord
100
AcDbRegAppTableRecord
  2
ACAD
 70
    0
  0
APPID
  5
4C
330
9
100
AcDbSymbolTableRecord
100
AcDbRegAppTableRecord
  2
LibreCad
 70
    0
  0
ENDTAB
  0
TABLE
  2
DIMSTYLE
  5
A
330
0
100
AcDbSymbolTable
 70
    1
100
AcDbDimStyleTable
 71
    1
  0
DIMSTYLE
105
4D
330
A
100
AcDbSymbolTableRecord
100
AcDbDimStyleTableRecord
  2
Standard
 70
    0
 40
1
 41
2.5
 42
0.625
 43
0.38
 44
1.25
 45
0
 46
0
 47
0
 48
0
 49
1
140
2.5
141
0.09
142
0
143
25.4
144
1
145
0
146
1
147
0.625
148
0
 71
    0
 72
    0
 73
    0
 74
    1
 75
    0
 76
    0
 77
    0
 78
    1
 79
    0
170
    0
171
    2
172
    0
173
    0
174
    0
175
    0
176
    0
177
    0
178
    0
179
    0
271
    2
272
    4
273
    2
274
    2
275
    0
276
    0
277
    2
278
    0
279
    0
280
    0
281
    0
282
    0
283
    1
284
    0
285
    0
286
    0
288
    0
289
    3
340
standard
341

371
   -2
372
   -2
  0
ENDTAB
  0
TABLE
  2
BLOCK_RECORD
  5
1
330
0
100
AcDbSymbolTable
 70
    2
  0
BLOCK_RECORD
  5
1F
330
1
100
AcDbSymbolTableRecord
100
AcDbBlockTableRecord
  2
*Model_Space
 70
    0
280
    1
281
    0
  0
BLOCK_RECORD
  5
1E
330
1
100
AcDbSymbolTableRecord
100
AcDbBlockTableRecord
  2
*Paper_Space
 70
    0
280
    1
281
    0
  0
BLOCK_RECORD
  5
4E
330
1
100
AcDbSymbolTableRecord
100
AcDbBlockTableRecord
  2
*D11
 70
    0
280
    1
281
    0
  0
BLOCK_RECORD
  5
51
330
1
100
AcDbSymbolTableRecord
100
AcDbBlockTableRecord
  2
*D9
 70
    0
280
    1
281
    0
  0
BLOCK_RECORD
  5
54
330
1
100
AcDbSymbolTableRecord
100
AcDbBlockTableRecord
  2
*D19
 70
    0
280
    1
281
    0
  0
BLOCK_RECORD
  5
57
330
1
100
AcDbSymbolTableRecord
100
AcDbBlockTableRecord
  2
*D12
 70
    0
280
    1
281
    0
  0
BLOCK_RECORD
  5
5A
330
1
100
AcDbSymbolTableRecord
100
AcDbBlockTableRecord
  2
*D13
 70
    0
280
    1
281
    0
  0
BLOCK_RECORD
  5
5D
330
1
100
AcDbSymbolTableRecord
100
AcDbBlockTableRecord
  2
*D17
 70
    0
280
    1
281
    0
  0
BLOCK_RECORD
  5
60
330
1
100
AcDbSymbolTableRecord
100
AcDbBlockTableRecord
  2
*D18
 70
    0
280
    1
281
    0
  0
BLOCK_RECORD
  5
63
330
1
100
AcDbSymbolTableRecord
100
AcDbBlockTableRecord
  2
*D20
 70
    0
280
    1
281
    0
  0
BLOCK_RECORD
  5
66
330
1
100
AcDbSymbolTableRecord
100
AcDbBlockTableRecord
  2
*D10
 70
    0
280
    1
281
    0
  0
BLOCK_RECORD
  5
69
330
1
100
AcDbSymbolTableRecord
100
AcDbBlockTableRecord
  2
*D1
 70
    0
280
    1
281
    0
  0
BLOCK_RECORD
  5
6C
330
1
100
AcDbSymbolTableRecord
100
AcDbBlockTableRecord
  2
*D7
 70
    0
280
    1
281
    0
  0
BLOCK_RECORD
  5
6F
330
1
100
AcDbSymbolTableRecord
100
AcDbBlockTableRecord
  2
*D21
 70
    0
280
    1
281
    0
  0
BLOCK_RECORD
  5
72
330
1
100
AcDbSymbolTableRecord
100
AcDbBlockTableRecord
  2
*D8
 70
    0
280
    1
281
    0
  0
BLOCK_RECORD
  5
75
330
1
100
AcDbSymbolTableRecord
100
AcDbBlockTableRecord
  2
*D2
 70
    0
280
    1
281
    0
  0
BLOCK_RECORD
  5
78
330
1
100
AcDbSymbolTableRecord
100
AcDbBlockTableRecord
  2
*D15
 70
    0
280
    1
281
    0
  0
BLOCK_RECORD
  5
7B
330
1
100
AcDbSymbolTableRecord
100
AcDbBlockTableRecord
  2
*D3
 70
    0
280
    1
281
    0
  0
BLOCK_RECORD
  5
7E
330
1
100
AcDbSymbolTableRecord
100
AcDbBlockTableRecord
  2
*D22
 70
    0
280
    1
281
    0
  0
BLOCK_RECORD
  5
81
330
1
100
AcDbSymbolTableRecord
100
AcDbBlockTableRecord
  2
*D6
 70
    0
280
    1
281
    0
  0
BLOCK_RECORD
  5
84
330
1
100
AcDbSymbolTableRecord
100
AcDbBlockTableRecord
  2
*D23
 70
    0
280
    1
281
    0
  0
BLOCK_RECORD
  5
87
330
1
100
AcDbSymbolTableRecord
100
AcDbBlockTableRecord
  2
*D14
 70
    0
280
    1
281
    0
  0
BLOCK_RECORD
  5
8A
330
1
100
AcDbSymbolTableRecord
100
AcDbBlockTableRecord
  2
*D4
 70
    0
280
    1
281
    0
  0
BLOCK_RECORD
  5
8D
330
1
100
AcDbSymbolTableRecord
100
AcDbBlockTableRecord
  2
*D16
 70
    0
280
    1
281
    0
  0
BLOCK_RECORD
  5
90
330
1
100
AcDbSymbolTableRecord
100
AcDbBlockTableRecord
  2
*D5
 70
    0
280
    1
281
    0
  0
ENDTAB
  0
ENDSEC
  0
SECTION
  2
BLOCKS
  0
BLOCK
  5
20
330
1F
100
AcDbEntity
  8
0
100
AcDbBlockBegin
  2
*Model_Space
 70
    0
 10
0
 20
0
 30
0
  3
*Model_Space
  1

  0
ENDBLK
  5
21
330
1F
100
AcDbEntity
  8
0
100
AcDbBlockEnd
  0
BLOCK
  5
1C
330
1B
100
AcDbEntity
  8
0
100
AcDbBlockBegin
  2
*Paper_Space
 70
    0
 10
0
 20
0
 30
0
  3
*Paper_Space
  1

  0
ENDBLK
  5
1D
330
1F
100
AcDbEntity
  8
0
100
AcDbBlockEnd
  0
BLOCK
  5
4F
330
4E
100
AcDbEntity
  8
0
100
AcDbBlockBegin
  2
*D11
 70
    1
 10
0
 20
0
  3
*D11
  1

  0
LINE
  5
93
100
AcDbEntity
  8
guide
  6
ByBlock
 62
    0
370
   -2
100
AcDbLine
 10
117.0013818182371
 20
-34
 11
132.998618181763
 21
-34
  0
SOLID
  5
94
100
AcDbEntity
  8
guide
  6
ByBlock
 62
    0
370
   -2
100
AcDbTrace
 10
122.0013818182371
 20
-34
 30
0
 11
119.5013818182371
 21
-34.41628465777284
 31
0
 12
119.5013818182371
 22
-33.58371534222716
 32
0
 13
119.5013818182371
 23
-33.58371534222716
 33
0
  0
SOLID
  5
95
100
AcDbEntity
  8
guide
  6
ByBlock
 62
    0
370
   -2
100
AcDbTrace
 10
127.998618181763
 20
-34
 30
0
 11
130.498618181763
 21
-33.58371534222716
 31
0
 12
130.498618181763
 22
-34.41628465777284
 32
0
 13
130.498618181763
 23
-34.41628465777284
 33
0
  0
MTEXT
  5
96
100
AcDbEntity
  8
guide
  6
CONTINUOUS
 62
    0
370
   -2
100
AcDbMText
 10
133.4847292928741
 20
-32.125
 30
0
 40
2.5
 41
9.722222222222378
 71
    5
 72
    1
  1
5.9972
  7
standard
210
0
220
0
230
1
 50
0
 73
    2
 44
1
  0
LINE
  5
97
100
AcDbEntity
  8
guide
  6
ByBlock
 62
    0
370
   -2
100
AcDbLine
 10
122.0013818182371
 20
-35.608
 11
122.0013818182371
 21
-32.75
  0
LINE
  5
98
100
AcDbEntity
  8
guide
  6
ByBlock
 62
    0
370
   -2
100
AcDbLine
 10
127.998618181763
 20
-35.608
 11
127.998618181763
 21
-32.75
  0
ENDBLK
  5
50
330
4E
100
AcDbEntity
  8
0
100
AcDbBlockEnd
  0
BLOCK
  5
52
330
51
100
AcDbEntity
  8
0
100
AcDbBlockBegin
  2
*D9
 70
    1
 10
0
 20
0
  3
*D9
  1

  0
LINE
  5
99
100
AcDbEntity
  8
guide
  6
ByBlock
 62
    0
370
   -2
100
AcDbLine
 10
87.00138181823706
 20
-34
 11
102.998618181763
 21
-34
  0
SOLID
  5
9A
100
AcDbEntity
  8
guide
  6
ByBlock
 62
    0
370
   -2
100
AcDbTrace
 10
92.00138181823706
 20
-34
 30
0
 11
89.50138181823706
 21
-34.41628465777284
 31
0
 12
89.50138181823706
 22
-33.58371534222716
 32
0
 13
89.50138181823706
 23
-33.58371534222716
 33
0
  0
SOLID
  5
9B
100
AcDbEntity
  8
guide
  6
ByBlock
 62
    0
370
   -2
100
AcDbTrace
 10
97.99861818176296
 20
-34
 30
0
 11
100.498618181763
 21
-33.58371534222716
 31
0
 12
100.498618181763
 22
-34.41628465777284
 32
0
 13
100.498618181763
 23
-34.41628465777284
 33
0
  0
MTEXT
  5
9C
100
AcDbEntity
  8
guide
  6
CONTINUOUS
 62
    0
370
   -2
100
AcDbMText
 10
103.4847292928741
 20
-32.125
 30
0
 40
2.5
 41
9.722222222222378
 71
    5
 72
    1
  1
5.9972
  7
standard
210
0
220
0
230
1
 50
0
 73
    2
 44
1
  0
LINE
  5
9D
100
AcDbEntity
  8
guide
  6
ByBlock
 62
    0
370
   -2
100
AcDbLine
 10
92.00138181823706
 20
-35.608
 11
92.00138181823706
 21
-32.75
  0
LINE
  5
9E
100
AcDbEntity
  8
guide
  6
ByBlock
 62
    0
370
   -2
100
AcDbLine
 10
97.99861818176296
 20
-35.608
 11
97.99861818176296
 21
-32.75
  0
ENDBLK
  5
53
330
51
100
AcDbEntity
  8
0
100
AcDbBlockEnd
  0
BLOCK
  5
55
330
54
100
AcDbEntity
  8
0
100
AcDbBlockBegin
  2
*D19
 70
    1
 10
0
 20
0
  3
*D19
  1

  0
LINE
  5
9F
100
AcDbEntity
  8
guide
  6
ByBlock
 62
    0
370
   -2
100
AcDbLine
 10
87.00138181823706
 20
-69
 11
102.998618181763
 21
-69
  0
SOLID
  5
A0
100
AcDbEntity
  8
guide
  6
ByBlock
 62
    0
370
   -2
100
AcDbTrace
 10
92.00138181823706
 20
-69
 30
0
 11
89.50138181823706
 21
-69.41628465777283
 31
0
 12
89.50138181823706
 22
-68.58371534222717
 32
0
 13
89.50138181823706
 23
-68.58371534222717
 33
0
  0
SOLID
  5
A1
100
AcDbEntity
  8
guide
  6
ByBlock
 62
    0
370
   -2
100
AcDbTrace
 10
97.99861818176296
 20
-69
 30
0
 11
100.498618181763
 21
-68.58371534222717
 31
0
 12
100.498618181763
 22
-69.41628465777283
 32
0
 13
100.498618181763
 23
-69.41628465777283
 33
0
  0
MTEXT
  5
A2
100
AcDbEntity
  8
guide
  6
CONTINUOUS
 62
    0
370
   -2
100
AcDbMText
 10
103.4847292928741
 20
-67.125
 30
0
 40
2.5
 41
9.722222222222378
 71
    5
 72
    1
  1
5.9972
  7
standard
210
0
220
0
230
1
 50
0
 73
    2
 44
1
  0
LINE
  5
A3
100
AcDbEntity
  8
guide
  6
ByBlock
 62
    0
370
   -2
100
AcDbLine
 10
92.00138181823706
 20
-70.608
 11
92.00138181823706
 21
-67.75
  0
LINE
  5
A4
100
AcDbEntity
  8
guide
  6
ByBlock
 62
    0
370
   -2
100
AcDbLine
 10
97.99861818176296
 20
-70.608
 11
97.99861818176296
 21
-67.75
  0
ENDBLK
  5
56
330
54
100
AcDbEntity
  8
0
100
AcDbBlockEnd
  0
BLOCK
  5
58
330
57
100
AcDbEntity
  8
0
100
AcDbBlockBegin
  2
*D12
 70
    1
 10
0
 20
0
  3
*D12
  1

  0
LINE
  5
A5
100
AcDbEntity
  8
guide
  6
ByBlock
 62
    0
370
   -2
100
AcDbLine
 10
148.5
 20
-54
 11
161.5
 21
-54
  0
SOLID
  5
A6
100
AcDbEntity
  8
guide
  6
ByBlock
 62
    0
370
   -2
100
AcDbTrace
 10
148.5
 20
-54
 30
0
 11
151
 21
-53.58371534222716
 31
0
 12
151
 22
-54.41628465777284
 32
0
 13
151
 23
-54.41628465777284
 33
0
  0
SOLID
  5
A7
100
AcDbEntity
  8
guide
  6
ByBlock
 62
    0
370
   -2
100
AcDbTrace
 10
161.5
 20
-54
 30
0
 11
159
 21
-54.41628465777284
 31
0
 12
159
 22
-53.58371534222716
 32
0
 13
159
 23
-53.58371534222716
 33
0
  0
MTEXT
  5
A8
100
AcDbEntity
  8
guide
  6
CONTINUOUS
 62
    0
370
   -2
100
AcDbMText
 10
155
 20
-52.125
 30
0
 40
2.5
 41
11.11111111111127
 71
    5
 72
    1
  1
13.0000
  7
standard
210
0
220
0
230
1
 50
0
 73
    2
 44
1
  0
LINE
  5
A9
100
AcDbEntity
  8
guide
  6
ByBlock
 62
    0
370
   -2
100
AcDbLine
 10
148.5
 20
-42.625
 11
148.5
 21
-55.25
  0
LINE
  5
AA
100
AcDbEntity
  8
guide
  6
ByBlock
 62
    0
370
   -2
100
AcDbLine
 10
161.5
 20
-42.62500000000001
 11
161.5
 21
-55.25
  0
ENDBLK
  5
59
330
57
100
AcDbEntity
  8
0
100
AcDbBlockEnd
  0
BLOCK
  5
5B
330
5A
100
AcDbEntity
  8
0
100
AcDbBlockBegin
  2
*D13
 70
    1
 10
0
 20
0
  3
*D13
  1

  0
LINE
  5
AB
100
AcDbEntity
  8
guide
  6
ByBlock
 62
    0
370
   -2
100
AcDbLine
 10
147.0013818182371
 20
-34
 11
162.998618181763
 21
-34
  0
SOLID
  5
AC
100
AcDbEntity
  8
guide
  6
ByBlock
 62
    0
370
   -2
100
AcDbTrace
 10
152.0013818182371
 20
-34
 30
0
 11
149.5013818182371
 21
-34.41628465777284
 31
0
 12
149.5013818182371
 22
-33.58371534222716
 32
0
 13
149.5013818182371
 23
-33.58371534222716
 33
0
  0
SOLID
  5
AD
100
AcDbEntity
  8
guide
  6
ByBlock
 62
    0
370
   -2
100
AcDbTrace
 10
157.998618181763
 20
-34
 30
0
 11
160.498618181763
 21
-33.58371534222716
 31
0
 12
160.498618181763
 22
-34.41628465777284
 32
0
 13
160.498618181763
 23
-34.41628465777284
 33
0
  0
MTEXT
  5
AE
100
AcDbEntity
  8
guide
  6
CONTINUOUS
 62
    0
370
   -2
100
AcDbMText
 10
163.4847292928741
 20
-32.125
 30
0
 40
2.5
 41
9.722222222222378
 71
    5
 72
    1
  1
5.9972
  7
standard
210
0
220
0
230
1
 50
0
 73
    2
 44
1
  0
LINE
  5
AF
100
AcDbEntity
  8
guide
  6
ByBlock
 62
    0
370
   -2
100
AcDbLine
 10
152.0013818182371
 20
-35.608
 11
152.0013818182371
 21
-32.75
  0
LINE
  5
B0
100
AcDbEntity
  8
guide
  6
ByBlock
 62
    0
370
   -2
100
AcDbLine
 10
157.998618181763
 20
-35.608
 11
157.998618181763
 21
-32.75
  0
ENDBLK
  5
5C
330
5A
100
AcDbEntity
  8
0
100
AcDbBlockEnd
  0
BLOCK
  5
5E
330
5D
100
AcDbEntity
  8
0
100
AcDbBlockBegin
  2
*D17
 70
    1
 10
0
 20
0
  3
*D17
  1

  0
LINE
  5
B1
100
AcDbEntity
  8
guide
  6
ByBlock
 62
    0
370
   -2
100
AcDbLine
 10
57.00138181823706
 20
-69
 11
72.99861818176296
 21
-69
  0
SOLID
  5
B2
100
AcDbEntity
  8
guide
  6
ByBlock
 62
    0
370
   -2
100
AcDbTrace
 10
62.00138181823706
 20
-69
 30
0
 11
59.50138181823706
 21
-69.41628465777283
 31
0
 12
59.50138181823706
 22
-68.58371534222717
 32
0
 13
59.50138181823706
 23
-68.58371534222717
 33
0
  0
SOLID
  5
B3
100
AcDbEntity
  8
guide
  6
ByBlock
 62
    0
370
   -2
100
AcDbTrace
 10
67.99861818176296
 20
-69
 30
0
 11
70.49861818176296
 21
-68.58371534222717
 31
0
 12
70.49861818176296
 22
-69.41628465777283
 32
0
 13
70.49861818176296
 23
-69.41628465777283
 33
0
  0
MTEXT
  5
B4
100
AcDbEntity
  8
guide
  6
CONTINUOUS
 62
    0
370
   -2
100
AcDbMText
 10
73.48472929287415
 20
-67.125
 30
0
 40
2.5
 41
9.722222222222378
 71
    5
 72
    1
  1
5.9972
  7
standard
210
0
220
0
230
1
 50
0
 73
    2
 44
1
  0
LINE
  5
B5
100
AcDbEntity
  8
guide
  6
ByBlock
 62
    0
370
   -2
100
AcDbLine
 10
62.00138181823706
 20
-70.608
 11
62.00138181823706
 21
-67.75
  0
LINE
  5
B6
100
AcDbEntity
  8
guide
  6
ByBlock
 62
    0
370
   -2
100
AcDbLine
 10
67.99861818176296
 20
-70.608
 11
67.99861818176296
 21
-67.75
  0
ENDBLK
  5
5F
330
5D
100
AcDbEntity
  8
0
100
AcDbBlockEnd
  0
BLOCK
  5
61
330
60
100
AcDbEntity
  8
0
100
AcDbBlockBegin
  2
*D18
 70
    1
 10
0
 20
0
  3
*D18
  1

  0
LINE
  5
B7
100
AcDbEntity
  8
guide
  6
ByBlock
 62
    0
370
   -2
100
AcDbLine
 10
88.5
 20
-89
 11
101.5
 21
-89
  0
SOLID
  5
B8
100
AcDbEntity
  8
guide
  6
ByBlock
 62
    0
370
   -2
100
AcDbTrace
 10
88.5
 20
-89
 30
0
 11
91
 21
-88.58371534222717
 31
0
 12
91
 22
-89.41628465777283
 32
0
 13
91
 23
-89.41628465777283
 33
0
  0
SOLID
  5
B9
100
AcDbEntity
  8
guide
  6
ByBlock
 62
    0
370
   -2
100
AcDbTrace
 10
101.5
 20
-89
 30
0
 11
99
 21
-89.41628465777283
 31
0
 12
99
 22
-88.58371534222717
 32
0
 13
99
 23
-88.58371534222717
 33
0
  0
MTEXT
  5
BA
100
AcDbEntity
  8
guide
  6
CONTINUOUS
 62
    0
370
   -2
100
AcDbMText
 10
95
 20
-87.125
 30
0
 40
2.5
 41
11.11111111111127
 71
    5
 72
    1
  1
13.0000
  7
standard
210
0
220
0
230
1
 50
0
 73
    2
 44
1
  0
LINE
  5
BB
100
AcDbEntity
  8
guide
  6
ByBlock
 62
    0
370
   -2
100
AcDbLine
 10
88.5
 20
-77.625
 11
88.5
 21
-90.25
  0
LINE
  5
BC
100
AcDbEntity
  8
guide
  6
ByBlock
 62
    0
370
   -2
100
AcDbLine
 10
101.5
 20
-77.625
 11
101.5
 21
-90.25
  0
ENDBLK
  5
62
330
60
100
AcDbEntity
  8
0
100
AcDbBlockEnd
  0
BLOCK
  5
64
330
63
100
AcDbEntity
  8
0
100
AcDbBlockBegin
  2
*D20
 70
    1
 10
0
 20
0
  3
*D20
  1

  0
LINE
  5
BD
100
AcDbEntity
  8
guide
  6
ByBlock
 62
    0
370
   -2
100
AcDbLine
 10
118.5
 20
-89
 11
131.5
 21
-89
  0
SOLID
  5
BE
100
AcDbEntity
  8
guide
  6
ByBlock
 62
    0
370
   -2
100
AcDbTrace
 10
118.5
 20
-89
 30
0
 11
121
 21
-88.58371534222717
 31
0
 12
121
 22
-89.41628465777283
 32
0
 13
121
 23
-89.41628465777283
 33
0
  0
SOLID
  5
BF
100
AcDbEntity
  8
guide
  6
ByBlock
 62
    0
370
   -2
100
AcDbTrace
 10
131.5
 20
-89
 30
0
 11
129
 21
-89.41628465777283
 31
0
 12
129
 22
-88.58371534222717
 32
0
 13
129
 23
-88.58371534222717
 33
0
  0
MTEXT
  5
C0
100
AcDbEntity
  8
guide
  6
CONTINUOUS
 62
    0
370
   -2
100
AcDbMText
 10
125
 20
-87.125
 30
0
 40
2.5
 41
11.11111111111127
 71
    5
 72
    1
  1
13.0000
  7
standard
210
0
220
0
230
1
 50
0
 73
    2
 44
1
  0
LINE
  5
C1
100
AcDbEntity
  8
guide
  6
ByBlock
 62
    0
370
   -2
100
AcDbLine
 10
118.5
 20
-77.625
 11
118.5
 21
-90.25
  0
LINE
  5
C2
100
AcDbEntity
  8
guide
  6
ByBlock
 62
    0
370
   -2
100
AcDbLine
 10
131.5
 20
-77.625
 11
131.5
 21
-90.25
  0
ENDBLK
  5
65
330
63
100
AcDbEntity
  8
0
100
AcDbBlockEnd
  0
BLOCK
  5
67
330
66
100
AcDbEntity
  8
0
100
AcDbBlockBegin
  2
*D10
 70
    1
 10
0
 20
0
  3
*D10
  1

  0
LINE
  5
C3
100
AcDbEntity
  8
guide
  6
ByBlock
 62
    0
370
   -2
100
AcDbLine
 10
118.5
 20
-54
 11
131.5
 21
-54
  0
SOLID
  5
C4
100
AcDbEntity
  8
guide
  6
ByBlock
 62
    0
370
   -2
100
AcDbTrace
 10
118.5
 20
-54
 30
0
 11
121
 21
-53.58371534222716
 31
0
 12
121
 22
-54.41628465777284
 32
0
 13
121
 23
-54.41628465777284
 33
0
  0
SOLID
  5
C5
100
AcDbEntity
  8
guide
  6
ByBlock
 62
    0
370
   -2
100
AcDbTrace
 10
131.5
 20
-54
 30
0
 11
129
 21
-54.41628465777284
 31
0
 12
129
 22
-53.58371534222716
 32
0
 13
129
 23
-53.58371534222716
 33
0
  0
MTEXT
  5
C6
100
AcDbEntity
  8
guide
  6
CONTINUOUS
 62
    0
370
   -2
100
AcDbMText
 10
125
 20
-52.125
 30
0
 40
2.5
 41
11.11111111111127
 71
    5
 72
    1
  1
13.0000
  7
standard
210
0
220
0
230
1
 50
0
 73
    2
 44
1
  0
LINE
  5
C7
100
AcDbEntity
  8
guide
  6
ByBlock
 62
    0
370
   -2
100
AcDbLine
 10
118.5
 20
-42.625
 11
118.5
 21
-55.25
  0
LINE
  5
C8
100
AcDbEntity
  8
guide
  6
ByBlock
 62
    0
370
   -2
100
AcDbLine
 10
131.5
 20
-42.62500000000001
 11
131.5
 21
-55.25
  0
ENDBLK
  5
68
330
66
100
AcDbEntity
  8
0
100
AcDbBlockEnd
  0
BLOCK
  5
6A
330
69
100
AcDbEntity
  8
0
100
AcDbBlockBegin
  2
*D1
 70
    1
 10
0
 20
0
  3
*D1
  1

  0
LINE
  5
C9
100
AcDbEntity
  8
guide
  6
ByBlock
 62
    0
370
   -2
100
AcDbLine
 10
-12
 20
3
 11
204
 21
3
  0
SOLID
  5
CA
100
AcDbEntity
  8
guide
  6
ByBlock
 62
    0
370
   -2
100
AcDbTrace
 10
-12
 20
3
 30
0
 11
-9.5
 21
3.41628465777284
 31
0
 12
-9.5
 22
2.583715342227159
 32
0
 13
-9.5
 23
2.583715342227159
 33
0
  0
SOLID
  5
CB
100
AcDbEntity
  8
guide
  6
ByBlock
 62
    0
370
   -2
100
AcDbTrace
 10
204
 20
3
 30
0
 11
201.5
 21
2.58371534222716
 31
0
 12
201.5
 22
3.41628465777284
 32
0
 13
201.5
 23
3.41628465777284
 33
0
  0
MTEXT
  5
CC
100
AcDbEntity
  8
guide
  6
CONTINUOUS
 62
    0
370
   -2
100
AcDbMText
 10
96
 20
4.875
 30
0
 40
2.5
 41
13.05555555555571
 71
    5
 72
    1
  1
216.0000
  7
standard
210
0
220
0
230
1
 50
0
 73
    2
 44
1
  0
LINE
  5
CD
100
AcDbEntity
  8
guide
  6
ByBlock
 62
    0
370
   -2
100
AcDbLine
 10
-12
 20
-16.375
 11
-12
 21
4.25
  0
LINE
  5
CE
100
AcDbEntity
  8
guide
  6
ByBlock
 62
    0
370
   -2
100
AcDbLine
 10
204
 20
-16.375
 11
204
 21
4.25
  0
ENDBLK
  5
6B
330
69
100
AcDbEntity
  8
0
100
AcDbBlockEnd
  0
BLOCK
  5
6D
330
6C
100
AcDbEntity
  8
0
100
AcDbBlockBegin
  2
*D7
 70
    1
 10
0
 20
0
  3
*D7
  1

  0
LINE
  5
CF
100
AcDbEntity
  8
guide
  6
ByBlock
 62
    0
370
   -2
100
AcDbLine
 10
57.00138181823706
 20
-34
 11
72.99861818176296
 21
-34
  0
SOLID
  5
D0
100
AcDbEntity
  8
guide
  6
ByBlock
 62
    0
370
   -2
100
AcDbTrace
 10
62.00138181823706
 20
-34
 30
0
 11
59.50138181823706
 21
-34.41628465777284
 31
0
 12
59.50138181823706
 22
-33.58371534222716
 32
0
 13
59.50138181823706
 23
-33.58371534222716
 33
0
  0
SOLID
  5
D1
100
AcDbEntity
  8
guide
  6
ByBlock
 62
    0
370
   -2
100
AcDbTrace
 10
67.99861818176296
 20
-34
 30
0
 11
70.49861818176296
 21
-33.58371534222716
 31
0
 12
70.49861818176296
 22
-34.41628465777284
 32
0
 13
70.49861818176296
 23
-34.41628465777284
 33
0
  0
MTEXT
  5
D2
100
AcDbEntity
  8
guide
  6
CONTINUOUS
 62
    0
370
   -2
100
AcDbMText
 10
73.48472929287415
 20
-32.125
 30
0
 40
2.5
 41
9.722222222222378
 71
    5
 72
    1
  1
5.9972
  7
standard
210
0
220
0
230
1
 50
0
 73
    2
 44
1
  0
LINE
  5
D3
100
AcDbEntity
  8
guide
  6
ByBlock
 62
    0
370
   -2
100
AcDbLine
 10
62.00138181823706
 20
-35.608
 11
62.00138181823706
 21
-32.75
  0
LINE
  5
D4
100
AcDbEntity
  8
guide
  6
ByBlock
 62
    0
370
   -2
100
AcDbLine
 10
67.99861818176296
 20
-35.608
 11
67.99861818176296
 21
-32.75
  0
ENDBLK
  5
6E
330
6C
100
AcDbEntity
  8
0
100
AcDbBlockEnd
  0
BLOCK
  5
70
330
6F
100
AcDbEntity
  8
0
100
AcDbBlockBegin
  2
*D21
 70
    1
 10
0
 20
0
  3
*D21
  1

  0
LINE
  5
D5
100
AcDbEntity
  8
guide
  6
ByBlock
 62
    0
370
   -2
100
AcDbLine
 10
117.0013818182371
 20
-69
 11
132.998618181763
 21
-69
  0
SOLID
  5
D6
100
AcDbEntity
  8
guide
  6
ByBlock
 62
    0
370
   -2
100
AcDbTrace
 10
122.0013818182371
 20
-69
 30
0
 11
119.5013818182371
 21
-69.41628465777283
 31
0
 12
119.5013818182371
 22
-68.58371534222717
 32
0
 13
119.5013818182371
 23
-68.58371534222717
 33
0
  0
SOLID
  5
D7
100
AcDbEntity
  8
guide
  6
ByBlock
 62
    0
370
   -2
100
AcDbTrace
 10
127.998618181763
 20
-69
 30
0
 11
130.498618181763
 21
-68.58371534222717
 31
0
 12
130.498618181763
 22
-69.41628465777283
 32
0
 13
130.498618181763
 23
-69.41628465777283
 33
0
  0
MTEXT
  5
D8
100
AcDbEntity
  8
guide
  6
CONTINUOUS
 62
    0
370
   -2
100
AcDbMText
 10
133.4847292928741
 20
-67.125
 30
0
 40
2.5
 41
9.722222222222378
 71
    5
 72
    1
  1
5.9972
  7
standard
210
0
220
0
230
1
 50
0
 73
    2
 44
1
  0
LINE
  5
D9
100
AcDbEntity
  8
guide
  6
ByBlock
 62
    0
370
   -2
100
AcDbLine
 10
122.0013818182371
 20
-70.608
 11
122.0013818182371
 21
-67.75
  0
LINE
  5
DA
100
AcDbEntity
  8
guide
  6
ByBlock
 62
    0
370
   -2
100
AcDbLine
 10
127.998618181763
 20
-70.608
 11
127.998618181763
 21
-67.75
  0
ENDBLK
  5
71
330
6F
100
AcDbEntity
  8
0
100
AcDbBlockEnd
  0
BLOCK
  5
73
330
72
100
AcDbEntity
  8
0
100
AcDbBlockBegin
  2
*D8
 70
    1
 10
0
 20
0
  3
*D8
  1

  0
LINE
  5
DB
100
AcDbEntity
  8
guide
  6
ByBlock
 62
    0
370
   -2
100
AcDbLine
 10
88.5
 20
-54
 11
101.5
 21
-54
  0
SOLID
  5
DC
100
AcDbEntity
  8
guide
  6
ByBlock
 62
    0
370
   -2
100
AcDbTrace
 10
88.5
 20
-54
 30
0
 11
91
 21
-53.58371534222716
 31
0
 12
91
 22
-54.41628465777284
 32
0
 13
91
 23
-54.41628465777284
 33
0
  0
SOLID
  5
DD
100
AcDbEntity
  8
guide
  6
ByBlock
 62
    0
370
   -2
100
AcDbTrace
 10
101.5
 20
-54
 30
0
 11
99
 21
-54.41628465777284
 31
0
 12
99
 22
-53.58371534222716
 32
0
 13
99
 23
-53.58371534222716
 33
0
  0
MTEXT
  5
DE
100
AcDbEntity
  8
guide
  6
CONTINUOUS
 62
    0
370
   -2
100
AcDbMText
 10
95
 20
-52.125
 30
0
 40
2.5
 41
11.11111111111127
 71
    5
 72
    1
  1
13.0000
  7
standard
210
0
220
0
230
1
 50
0
 73
    2
 44
1
  0
LINE
  5
DF
100
AcDbEntity
  8
guide
  6
ByBlock
 62
    0
370
   -2
100
AcDbLine
 10
88.5
 20
-42.625
 11
88.5
 21
-55.25
  0
LINE
  5
E0
100
AcDbEntity
  8
guide
  6
ByBlock
 62
    0
370
   -2
100
AcDbLine
 10
101.5
 20
-42.62500000000001
 11
101.5
 21
-55.25
  0
ENDBLK
  5
74
330
72
100
AcDbEntity
  8
0
100
AcDbBlockEnd
  0
BLOCK
  5
76
330
75
100
AcDbEntity
  8
0
100
AcDbBlockBegin
  2
*D2
 70
    1
 10
0
 20
0
  3
*D2
  1

  0
LINE
  5
E1
100
AcDbEntity
  8
guide
  6
ByBlock
 62
    0
370
   -2
100
AcDbLine
 10
-32
 20
-17
 11
-32.00000000000001
 21
-102
  0
SOLID
  5
E2
100
AcDbEntity
  8
guide
  6
ByBlock
 62
    0
370
   -2
100
AcDbTrace
 10
-32
 20
-17
 30
0
 11
-31.58371534222716
 21
-19.5
 31
0
 12
-32.41628465777284
 22
-19.5
 32
0
 13
-32.41628465777284
 23
-19.5
 33
0
  0
SOLID
  5
E3
100
AcDbEntity
  8
guide
  6
ByBlock
 62
    0
370
   -2
100
AcDbTrace
 10
-32.00000000000001
 20
-102
 30
0
 11
-32.41628465777285
 21
-99.5
 31
0
 12
-31.58371534222717
 22
-99.5
 32
0
 13
-31.58371534222717
 23
-99.5
 33
0
  0
MTEXT
  5
E4
100
AcDbEntity
  8
guide
  6
CONTINUOUS
 62
    0
370
   -2
100
AcDbMText
 10
-33.875
 20
-59.5
 30
0
 40
2.5
 41
11.66666666666682
 71
    5
 72
    1
  1
85.0000
  7
standard
210
0
220
0
230
1
 50
90
 73
    2
 44
1
  0
LINE
  5
E5
100
AcDbEntity
  8
guide
  6
ByBlock
 62
    0
370
   -2
100
AcDbLine
 10
-12.625
 20
-17
 11
-33.25
 21
-17
  0
LINE
  5
E6
100
AcDbEntity
  8
guide
  6
ByBlock
 62
    0
370
   -2
100
AcDbLine
 10
-12.625
 20
-102
 11
-33.25000000000001
 21
-102
  0
ENDBLK
  5
77
330
75
100
AcDbEntity
  8
0
100
AcDbBlockEnd
  0
BLOCK
  5
79
330
78
100
AcDbEntity
  8
0
100
AcDbBlockBegin
  2
*D15
 70
    1
 10
0
 20
0
  3
*D15
  1

  0
LINE
  5
E7
100
AcDbEntity
  8
guide
  6
ByBlock
 62
    0
370
   -2
100
AcDbLine
 10
27.00138181823706
 20
-69
 11
42.99861818176296
 21
-69
  0
SOLID
  5
E8
100
AcDbEntity
  8
guide
  6
ByBlock
 62
    0
370
   -2
100
AcDbTrace
 10
32.00138181823706
 20
-69
 30
0
 11
29.50138181823706
 21
-69.41628465777283
 31
0
 12
29.50138181823706
 22
-68.58371534222717
 32
0
 13
29.50138181823706
 23
-68.58371534222717
 33
0
  0
SOLID
  5
E9
100
AcDbEntity
  8
guide
  6
ByBlock
 62
    0
370
   -2
100
AcDbTrace
 10
37.99861818176296
 20
-69
 30
0
 11
40.49861818176296
 21
-68.58371534222717
 31
0
 12
40.49861818176296
 22
-69.41628465777283
 32
0
 13
40.49861818176296
 23
-69.41628465777283
 33
0
  0
MTEXT
  5
EA
100
AcDbEntity
  8
guide
  6
CONTINUOUS
 62
    0
370
   -2
100
AcDbMText
 10
43.48472929287415
 20
-67.125
 30
0
 40
2.5
 41
9.722222222222378
 71
    5
 72
    1
  1
5.9972
  7
standard
210
0
220
0
230
1
 50
0
 73
    2
 44
1
  0
LINE
  5
EB
100
AcDbEntity
  8
guide
  6
ByBlock
 62
    0
370
   -2
100
AcDbLine
 10
32.00138181823706
 20
-70.608
 11
32.00138181823706
 21
-67.75
  0
LINE
  5
EC
100
AcDbEntity
  8
guide
  6
ByBlock
 62
    0
370
   -2
100
AcDbLine
 10
37.99861818176296
 20
-70.608
 11
37.99861818176296
 21
-67.75
  0
ENDBLK
  5
7A
330
78
100
AcDbEntity
  8
0
100
AcDbBlockEnd
  0
BLOCK
  5
7C
330
7B
100
AcDbEntity
  8
0
100
AcDbBlockBegin
  2
*D3
 70
    1
 10
0
 20
0
  3
*D3
  1

  0
LINE
  5
ED
100
AcDbEntity
  8
guide
  6
ByBlock
 62
    0
370
   -2
100
AcDbLine
 10
217
 20
-78
 11
217
 21
-102
  0
SOLID
  5
EE
100
AcDbEntity
  8
guide
  6
ByBlock
 62
    0
370
   -2
100
AcDbTrace
 10
217
 20
-78
 30
0
 11
217.4162846577728
 21
-80.5
 31
0
 12
216.5837153422272
 22
-80.5
 32
0
 13
216.5837153422272
 23
-80.5
 33
0
  0
SOLID
  5
EF
100
AcDbEntity
  8
guide
  6
ByBlock
 62
    0
370
   -2
100
AcDbTrace
 10
217
 20
-102
 30
0
 11
216.5837153422272
 21
-99.5
 31
0
 12
217.4162846577728
 22
-99.5
 32
0
 13
217.4162846577728
 23
-99.5
 33
0
  0
MTEXT
  5
F0
100
AcDbEntity
  8
guide
  6
CONTINUOUS
 62
    0
370
   -2
100
AcDbMText
 10
215.125
 20
-90
 30
0
 40
2.5
 41
11.94444444444445
 71
    5
 72
    1
  1
24.0000
  7
standard
210
0
220
0
230
1
 50
90
 73
    2
 44
1
  0
LINE
  5
F1
100
AcDbEntity
  8
guide
  6
ByBlock
 62
    0
370
   -2
100
AcDbLine
 10
192.625
 20
-78
 11
218.25
 21
-78
  0
LINE
  5
F2
100
AcDbEntity
  8
guide
  6
ByBlock
 62
    0
370
   -2
100
AcDbLine
 10
192.225
 20
-102
 11
218.25
 21
-102
  0
ENDBLK
  5
7D
330
7B
100
AcDbEntity
  8
0
100
AcDbBlockEnd
  0
BLOCK
  5
7F
330
7E
100
AcDbEntity
  8
0
100
AcDbBlockBegin
  2
*D22
 70
    1
 10
0
 20
0
  3
*D22
  1

  0
LINE
  5
F3
100
AcDbEntity
  8
guide
  6
ByBlock
 62
    0
370
   -2
100
AcDbLine
 10
148.5
 20
-89
 11
161.5
 21
-89
  0
SOLID
  5
F4
100
AcDbEntity
  8
guide
  6
ByBlock
 62
    0
370
   -2
100
AcDbTrace
 10
148.5
 20
-89
 30
0
 11
151
 21
-88.58371534222717
 31
0
 12
151
 22
-89.41628465777283
 32
0
 13
151
 23
-89.41628465777283
 33
0
  0
SOLID
  5
F5
100
AcDbEntity
  8
guide
  6
ByBlock
 62
    0
370
   -2
100
AcDbTrace
 10
161.5
 20
-89
 30
0
 11
159
 21
-89.41628465777283
 31
0
 12
159
 22
-88.58371534222717
 32
0
 13
159
 23
-88.58371534222717
 33
0
  0
MTEXT
  5
F6
100
AcDbEntity
  8
guide
  6
CONTINUOUS
 62
    0
370
   -2
100
AcDbMText
 10
155
 20
-87.125
 30
0
 40
2.5
 41
11.11111111111127
 71
    5
 72
    1
  1
13.0000
  7
standard
210
0
220
0
230
1
 50
0
 73
    2
 44
1
  0
LINE
  5
F7
100
AcDbEntity
  8
guide
  6
ByBlock
 62
    0
370
   -2
100
AcDbLine
 10
148.5
 20
-77.625
 11
148.5
 21
-90.25
  0
LINE
  5
F8
100
AcDbEntity
  8
guide
  6
ByBlock
 62
    0
370
   -2
100
AcDbLine
 10
161.5
 20
-77.625
 11
161.5
 21
-90.25
  0
ENDBLK
  5
80
330
7E
100
AcDbEntity
  8
0
100
AcDbBlockEnd
  0
BLOCK
  5
82
330
81
100
AcDbEntity
  8
0
100
AcDbBlockBegin
  2
*D6
 70
    1
 10
0
 20
0
  3
*D6
  1

  0
LINE
  5
F9
100
AcDbEntity
  8
guide
  6
ByBlock
 62
    0
370
   -2
100
AcDbLine
 10
58.5
 20
-54
 11
71.5
 21
-54
  0
SOLID
  5
FA
100
AcDbEntity
  8
guide
  6
ByBlock
 62
    0
370
   -2
100
AcDbTrace
 10
58.5
 20
-54
 30
0
 11
61
 21
-53.58371534222716
 31
0
 12
61
 22
-54.41628465777284
 32
0
 13
61
 23
-54.41628465777284
 33
0
  0
SOLID
  5
FB
100
AcDbEntity
  8
guide
  6
ByBlock
 62
    0
370
   -2
100
AcDbTrace
 10
71.5
 20
-54
 30
0
 11
69
 21
-54.41628465777284
 31
0
 12
69
 22
-53.58371534222716
 32
0
 13
69
 23
-53.58371534222716
 33
0
  0
MTEXT
  5
FC
100
AcDbEntity
  8
guide
  6
CONTINUOUS
 62
    0
370
   -2
100
AcDbMText
 10
65
 20
-52.125
 30
0
 40
2.5
 41
11.11111111111127
 71
    5
 72
    1
  1
13.0000
  7
standard
210
0
220
0
230
1
 50
0
 73
    2
 44
1
  0
LINE
  5
FD
100
AcDbEntity
  8
guide
  6
ByBlock
 62
    0
370
   -2
100
AcDbLine
 10
58.5
 20
-42.625
 11
58.5
 21
-55.25
  0
LINE
  5
FE
100
AcDbEntity
  8
guide
  6
ByBlock
 62
    0
370
   -2
100
AcDbLine
 10
71.5
 20
-42.62500000000001
 11
71.5
 21
-55.25
  0
ENDBLK
  5
83
330
81
100
AcDbEntity
  8
0
100
AcDbBlockEnd
  0
BLOCK
  5
85
330
84
100
AcDbEntity
  8
0
100
AcDbBlockBegin
  2
*D23
 70
    1
 10
0
 20
0
  3
*D23
  1

  0
LINE
  5
FF
100
AcDbEntity
  8
guide
  6
ByBlock
 62
    0
370
   -2
100
AcDbLine
 10
147.0013818182371
 20
-69
 11
162.998618181763
 21
-69
  0
SOLID
  5
100
100
AcDbEntity
  8
guide
  6
ByBlock
 62
    0
370
   -2
100
AcDbTrace
 10
152.0013818182371
 20
-69
 30
0
 11
149.5013818182371
 21
-69.41628465777283
 31
0
 12
149.5013818182371
 22
-68.58371534222717
 32
0
 13
149.5013818182371
 23
-68.58371534222717
 33
0
  0
SOLID
  5
101
100
AcDbEntity
  8
guide
  6
ByBlock
 62
    0
370
   -2
100
AcDbTrace
 10
157.998618181763
 20
-69
 30
0
 11
160.498618181763
 21
-68.58371534222717
 31
0
 12
160.498618181763
 22
-69.41628465777283
 32
0
 13
160.498618181763
 23
-69.41628465777283
 33
0
  0
MTEXT
  5
102
100
AcDbEntity
  8
guide
  6
CONTINUOUS
 62
    0
370
   -2
100
AcDbMText
 10
163.4847292928741
 20
-67.125
 30
0
 40
2.5
 41
9.722222222222378
 71
    5
 72
    1
  1
5.9972
  7
standard
210
0
220
0
230
1
 50
0
 73
    2
 44
1
  0
LINE
  5
103
100
AcDbEntity
  8
guide
  6
ByBlock
 62
    0
370
   -2
100
AcDbLine
 10
152.0013818182371
 20
-70.608
 11
152.0013818182371
 21
-67.75
  0
LINE
  5
104
100
AcDbEntity
  8
guide
  6
ByBlock
 62
    0
370
   -2
100
AcDbLine
 10
157.998618181763
 20
-70.608
 11
157.998618181763
 21
-67.75
  0
ENDBLK
  5
86
330
84
100
AcDbEntity
  8
0
100
AcDbBlockEnd
  0
BLOCK
  5
88
330
87
100
AcDbEntity
  8
0
100
AcDbBlockBegin
  2
*D14
 70
    1
 10
0
 20
0
  3
*D14
  1

  0
LINE
  5
105
100
AcDbEntity
  8
guide
  6
ByBlock
 62
    0
370
   -2
100
AcDbLine
 10
28.5
 20
-89
 11
41.5
 21
-89
  0
SOLID
  5
106
100
AcDbEntity
  8
guide
  6
ByBlock
 62
    0
370
   -2
100
AcDbTrace
 10
28.5
 20
-89
 30
0
 11
31
 21
-88.58371534222717
 31
0
 12
31
 22
-89.41628465777283
 32
0
 13
31
 23
-89.41628465777283
 33
0
  0
SOLID
  5
107
100
AcDbEntity
  8
guide
  6
ByBlock
 62
    0
370
   -2
100
AcDbTrace
 10
41.5
 20
-89
 30
0
 11
39
 21
-89.41628465777283
 31
0
 12
39
 22
-88.58371534222717
 32
0
 13
39
 23
-88.58371534222717
 33
0
  0
MTEXT
  5
108
100
AcDbEntity
  8
guide
  6
CONTINUOUS
 62
    0
370
   -2
100
AcDbMText
 10
35
 20
-87.125
 30
0
 40
2.5
 41
11.11111111111127
 71
    5
 72
    1
  1
13.0000
  7
standard
210
0
220
0
230
1
 50
0
 73
    2
 44
1
  0
LINE
  5
109
100
AcDbEntity
  8
guide
  6
ByBlock
 62
    0
370
   -2
100
AcDbLine
 10
28.5
 20
-77.625
 11
28.5
 21
-90.25
  0
LINE
  5
10A
100
AcDbEntity
  8
guide
  6
ByBlock
 62
    0
370
   -2
100
AcDbLine
 10
41.5
 20
-77.625
 11
41.5
 21
-90.25
  0
ENDBLK
  5
89
330
87
100
AcDbEntity
  8
0
100
AcDbBlockEnd
  0
BLOCK
  5
8B
330
8A
100
AcDbEntity
  8
0
100
AcDbBlockBegin
  2
*D4
 70
    1
 10
0
 20
0
  3
*D4
  1

  0
LINE
  5
10B
100
AcDbEntity
  8
guide
  6
ByBlock
 62
    0
370
   -2
100
AcDbLine
 10
28.5
 20
-54
 11
41.5
 21
-54
  0
SOLID
  5
10C
100
AcDbEntity
  8
guide
  6
ByBlock
 62
    0
370
   -2
100
AcDbTrace
 10
28.5
 20
-54
 30
0
 11
31
 21
-53.58371534222716
 31
0
 12
31
 22
-54.41628465777284
 32
0
 13
31
 23
-54.41628465777284
 33
0
  0
SOLID
  5
10D
100
AcDbEntity
  8
guide
  6
ByBlock
 62
    0
370
   -2
100
AcDbTrace
 10
41.5
 20
-54
 30
0
 11
39
 21
-54.41628465777284
 31
0
 12
39
 22
-53.58371534222716
 32
0
 13
39
 23
-53.58371534222716
 33
0
  0
MTEXT
  5
10E
100
AcDbEntity
  8
guide
  6
CONTINUOUS
 62
    0
370
   -2
100
AcDbMText
 10
35
 20
-52.125
 30
0
 40
2.5
 41
11.11111111111127
 71
    5
 72
    1
  1
13.0000
  7
standard
210
0
220
0
230
1
 50
0
 73
    2
 44
1
  0
LINE
  5
10F
100
AcDbEntity
  8
guide
  6
ByBlock
 62
    0
370
   -2
100
AcDbLine
 10
28.5
 20
-42.625
 11
28.5
 21
-55.25
  0
LINE
  5
110
100
AcDbEntity
  8
guide
  6
ByBlock
 62
    0
370
   -2
100
AcDbLine
 10
41.5
 20
-42.62500000000001
 11
41.5
 21
-55.25
  0
ENDBLK
  5
8C
330
8A
100
AcDbEntity
  8
0
100
AcDbBlockEnd
  0
BLOCK
  5
8E
330
8D
100
AcDbEntity
  8
0
100
AcDbBlockBegin
  2
*D16
 70
    1
 10
0
 20
0
  3
*D16
  1

  0
LINE
  5
111
100
AcDbEntity
  8
guide
  6
ByBlock
 62
    0
370
   -2
100
AcDbLine
 10
58.5
 20
-89
 11
71.5
 21
-89
  0
SOLID
  5
112
100
AcDbEntity
  8
guide
  6
ByBlock
 62
    0
370
   -2
100
AcDbTrace
 10
58.5
 20
-89
 30
0
 11
61
 21
-88.58371534222717
 31
0
 12
61
 22
-89.41628465777283
 32
0
 13
61
 23
-89.41628465777283
 33
0
  0
SOLID
  5
113
100
AcDbEntity
  8
guide
  6
ByBlock
 62
    0
370
   -2
100
AcDbTrace
 10
71.5
 20
-89
 30
0
 11
69
 21
-89.41628465777283
 31
0
 12
69
 22
-88.58371534222717
 32
0
 13
69
 23
-88.58371534222717
 33
0
  0
MTEXT
  5
114
100
AcDbEntity
  8
guide
  6
CONTINUOUS
 62
    0
370
   -2
100
AcDbMText
 10
65
 20
-87.125
 30
0
 40
2.5
 41
11.11111111111127
 71
    5
 72
    1
  1
13.0000
  7
standard
210
0
220
0
230
1
 50
0
 73
    2
 44
1
  0
LINE
  5
115
100
AcDbEntity
  8
guide
  6
ByBlock
 62
    0
370
   -2
100
AcDbLine
 10
58.5
 20
-77.625
 11
58.5
 21
-90.25
  0
LINE
  5
116
100
AcDbEntity
  8
guide
  6
ByBlock
 62
    0
370
   -2
100
AcDbLine
 10
71.5
 20
-77.625
 11
71.5
 21
-90.25
  0
ENDBLK
  5
8F
330
8D
100
AcDbEntity
  8
0
100
AcDbBlockEnd
  0
BLOCK
  5
91
330
90
100
AcDbEntity
  8
0
100
AcDbBlockBegin
  2
*D5
 70
    1
 10
0
 20
0
  3
*D5
  1

  0
LINE
  5
117
100
AcDbEntity
  8
guide
  6
ByBlock
 62
    0
370
   -2
100
AcDbLine
 10
27.00138181823706
 20
-34
 11
42.99861818176296
 21
-34
  0
SOLID
  5
118
100
AcDbEntity
  8
guide
  6
ByBlock
 62
    0
370
   -2
100
AcDbTrace
 10
32.00138181823706
 20
-34
 30
0
 11
29.50138181823706
 21
-34.41628465777284
 31
0
 12
29.50138181823706
 22
-33.58371534222716
 32
0
 13
29.50138181823706
 23
-33.58371534222716
 33
0
  0
SOLID
  5
119
100
AcDbEntity
  8
guide
  6
ByBlock
 62
    0
370
   -2
100
AcDbTrace
 10
37.99861818176296
 20
-34
 30
0
 11
40.49861818176296
 21
-33.58371534222716
 31
0
 12
40.49861818176296
 22
-34.41628465777284
 32
0
 13
40.49861818176296
 23
-34.41628465777284
 33
0
  0
MTEXT
  5
11A
100
AcDbEntity
  8
guide
  6
CONTINUOUS
 62
    0
370
   -2
100
AcDbMText
 10
43.48472929287415
 20
-32.125
 30
0
 40
2.5
 41
9.722222222222378
 71
    5
 72
    1
  1
5.9972
  7
standard
210
0
220
0
230
1
 50
0
 73
    2
 44
1
  0
LINE
  5
11B
100
AcDbEntity
  8
guide
  6
ByBlock
 62
    0
370
   -2
100
AcDbLine
 10
32.00138181823706
 20
-35.608
 11
32.00138181823706
 21
-32.75
  0
LINE
  5
11C
100
AcDbEntity
  8
guide
  6
ByBlock
 62
    0
370
   -2
100
AcDbLine
 10
37.99861818176296
 20
-35.608
 11
37.99861818176296
 21
-32.75
  0
ENDBLK
  5
92
330
90
100
AcDbEntity
  8
0
100
AcDbBlockEnd
  0
ENDSEC
  0
SECTION
  2
ENTITIES
  0
LINE
  5
11D
100
AcDbEntity
  8
0
  6
ByLayer
 62
  256
370
   -1
100
AcDbLine
 10
0
 20
-17
 11
192
 21
-17
  0
LINE
  5
11E
100
AcDbEntity
  8
0
  6
ByLayer
 62
  256
370
   -1
100
AcDbLine
 10
204
 20
-29
 11
204
 21
-90
  0
LINE
  5
11F
100
AcDbEntity
  8
0
  6
ByLayer
 62
  256
370
   -1
100
AcDbLine
 10
192
 20
-102
 11
0
 21
-102
  0
LINE
  5
120
100
AcDbEntity
  8
0
  6
ByLayer
 62
  256
370
   -1
100
AcDbLine
 10
-12
 20
-90
 11
-12
 21
-29
  0
CIRCLE
  5
121
100
AcDbEntity
  8
0
  6
ByLayer
 62
  256
370
   -1
100
AcDbCircle
 10
0
 20
-90
 40
3.25
  0
CIRCLE
  5
122
100
AcDbEntity
  8
0
  6
ByLayer
 62
  256
370
   -1
100
AcDbCircle
 10
0
 20
-29
 40
3.25
  0
CIRCLE
  5
123
100
AcDbEntity
  8
0
  6
ByLayer
 62
  256
370
   -1
100
AcDbCircle
 10
192
 20
-29
 40
3.25
  0
CIRCLE
  5
124
100
AcDbEntity
  8
0
  6
ByLayer
 62
  256
370
   -1
100
AcDbCircle
 10
192
 20
-90
 40
3.25
  0
CIRCLE
  5
125
100
AcDbEntity
  8
guide
  6
ByLayer
 62
  256
370
   -1
100
AcDbCircle
 10
-0.01580000000000048
 20
-29.0042
 40
11.9885
  0
CIRCLE
  5
126
100
AcDbEntity
  8
guide
  6
ByLayer
 62
  256
370
   -1
100
AcDbCircle
 10
-0.01580000000000048
 20
-90.0042
 40
11.9885
  0
CIRCLE
  5
127
100
AcDbEntity
  8
guide
  6
ByLayer
 62
  256
370
   -1
100
AcDbCircle
 10
191.988
 20
-29.0115
 40
11.9885
  0
CIRCLE
  5
128
100
AcDbEntity
  8
guide
  6
ByLayer
 62
  256
370
   -1
100
AcDbCircle
 10
191.984
 20
-90.0042
 40
11.9885
  0
DIMENSION
  5
129
100
AcDbEntity
  8
guide
  6
ByLayer
 62
  256
370
   -1
100
AcDbDimension
  2
*D1
 10
128
 20
3
 30
0
 11
96
 21
4.875
 31
0
 70
   32
 71
    5
  3
Standard
 53
0
210
0
220
0
230
1
100
AcDbAlignedDimension
 13
-12
 23
-17
 33
0
 14
204
 24
-17
 34
0
100
AcDbRotatedDimension
  0
DIMENSION
  5
12A
100
AcDbEntity
  8
guide
  6
ByLayer
 62
  256
370
   -1
100
AcDbDimension
  2
*D2
 10
-32.00000000000001
 20
-97
 30
0
 11
-33.875
 21
-59.5
 31
0
 70
   32
 71
    5
  3
Standard
 53
0
210
0
220
0
230
1
100
AcDbAlignedDimension
 13
-12
 23
-17
 33
0
 14
-12
 24
-102
 34
0
 50
90
100
AcDbRotatedDimension
  0
DIMENSION
  5
12B
100
AcDbEntity
  8
guide
  6
ByLayer
 62
  256
370
   -1
100
AcDbDimension
  2
*D3
 10
217
 20
-110
 30
0
 11
215.125
 21
-90
 31
0
 70
   32
 71
    5
  3
Standard
 53
0
210
0
220
0
230
1
100
AcDbAlignedDimension
 13
192
 23
-78
 33
0
 14
191.6
 24
-102
 34
0
 50
90
100
AcDbRotatedDimension
  0
ARC
  5
12C
100
AcDbEntity
  8
guide
  6
ByLayer
 62
  256
370
   -1
100
AcDbCircle
 10
192
 20
-29
 40
12
100
AcDbArc
 50
0
 51
90
  0
ARC
  5
12D
100
AcDbEntity
  8
0
  6
ByLayer
 62
  256
370
   -1
100
AcDbCircle
 10
192
 20
-29
 40
12
100
AcDbArc
 50
0
 51
90
  0
ARC
  5
12E
100
AcDbEntity
  8
0
  6
ByLayer
 62
  256
370
   -1
100
AcDbCircle
 10
192
 20
-90
 40
12
100
AcDbArc
 50
270
 51
0
  0
ARC
  5
12F
100
AcDbEntity
  8
0
  6
ByLayer
 62
  256
370
   -1
100
AcDbCircle
 10
0
 20
-90
 40
12
100
AcDbArc
 50
180
 51
270
  0
ARC
  5
130
100
AcDbEntity
  8
0
  6
ByLayer
 62
  256
370
   -1
100
AcDbCircle
 10
0
 20
-29
 40
12
100
AcDbArc
 50
90
 51
180
  0
MTEXT
  5
131
100
AcDbEntity
  8
guide
  6
ByLayer
 62
  256
370
   -1
100
AcDbMText
 10
25.58333333333336
 20
-38.66666666666667
 30
0
 40
2
 41
14.00000102857467
 71
    5
 72
    1
  1
13 mm\Pconnectors
  7

210
0
220
0
230
1
 50
0
 73
    2
 44
1
  0
LINE
  5
132
100
AcDbEntity
  8
0
  6
ByLayer
 62
  256
370
   -1
100
AcDbLine
 10
32.00138181823687
 20
-36.23299999999999
 11
37.99861818176315
 21
-36.233
  0
ARC
  5
133
100
AcDbEntity
  8
0
  6
ByLayer
 62
  256
370
   -1
100
AcDbCircle
 10
35.00000000000001
 20
-42.00000000000001
 40
6.499999999999996
100
AcDbArc
 50
117.4726968787283
 51
62.52730312127173
  0
DIMENSION
  5
134
100
AcDbEntity
  8
guide
  6
ByLayer
 62
  256
370
   -1
100
AcDbDimension
  2
*D4
 10
41.5
 20
-54
 30
0
 11
35
 21
-52.125
 31
0
 70
   32
 71
    5
  3
Standard
 53
0
210
0
220
0
230
1
100
AcDbAlignedDimension
 13
28.5
 23
-42
 33
0
 14
41.5
 24
-42.00000000000001
 34
0
100
AcDbRotatedDimension
  0
DIMENSION
  5
135
100
AcDbEntity
  8
guide
  6
ByLayer
 62
  256
370
   -1
100
AcDbDimension
  2
*D5
 10
37.99861818176296
 20
-34
 30
0
 11
35.00000000000001
 21
-32.125
 31
0
 70
   32
 71
    5
  3
Standard
 53
0
210
0
220
0
230
1
100
AcDbAlignedDimension
 13
32.00138181823706
 23
-36.233
 33
0
 14
37.99861818176296
 24
-36.233
 34
0
100
AcDbRotatedDimension
  0
MTEXT
  5
136
100
AcDbEntity
  8
guide
  6
ByLayer
 62
  256
370
   -1
100
AcDbMText
 10
55.58333333333336
 20
-38.66666666666667
 30
0
 40
2
 41
14.00000102857467
 71
    5
 72
    1
  1
13 mm\Pconnectors
  7

210
0
220
0
230
1
 50
0
 73
    2
 44
1
  0
LINE
  5
137
100
AcDbEntity
  8
0
  6
ByLayer
 62
  256
370
   -1
100
AcDbLine
 10
62.00138181823687
 20
-36.23299999999999
 11
67.99861818176315
 21
-36.233
  0
ARC
  5
138
100
AcDbEntity
  8
0
  6
ByLayer
 62
  256
370
   -1
100
AcDbCircle
 10
65
 20
-42.00000000000001
 40
6.499999999999996
100
AcDbArc
 50
117.4726968787283
 51
62.52730312127173
  0
DIMENSION
  5
139
100
AcDbEntity
  8
guide
  6
ByLayer
 62
  256
370
   -1
100
AcDbDimension
  2
*D6
 10
71.5
 20
-54
 30
0
 11
65
 21
-52.125
 31
0
 70
   32
 71
    5
  3
Standard
 53
0
210
0
220
0
230
1
100
AcDbAlignedDimension
 13
58.5
 23
-42
 33
0
 14
71.5
 24
-42.00000000000001
 34
0
100
AcDbRotatedDimension
  0
DIMENSION
  5
13A
100
AcDbEntity
  8
guide
  6
ByLayer
 62
  256
370
   -1
100
AcDbDimension
  2
*D7
 10
67.99861818176296
 20
-34
 30
0
 11
65.00000000000001
 21
-32.125
 31
0
 70
   32
 71
    5
  3
Standard
 53
0
210
0
220
0
230
1
100
AcDbAlignedDimension
 13
62.00138181823706
 23
-36.233
 33
0
 14
67.99861818176296
 24
-36.233
 34
0
100
AcDbRotatedDimension
  0
MTEXT
  5
13B
100
AcDbEntity
  8
guide
  6
ByLayer
 62
  256
370
   -1
100
AcDbMText
 10
85.58333333333337
 20
-38.66666666666667
 30
0
 40
2
 41
14.00000102857467
 71
    5
 72
    1
  1
13 mm\Pconnectors
  7

210
0
220
0
230
1
 50
0
 73
    2
 44
1
  0
LINE
  5
13C
100
AcDbEntity
  8
0
  6
ByLayer
 62
  256
370
   -1
100
AcDbLine
 10
92.00138181823687
 20
-36.23299999999999
 11
97.99861818176315
 21
-36.233
  0
ARC
  5
13D
100
AcDbEntity
  8
0
  6
ByLayer
 62
  256
370
   -1
100
AcDbCircle
 10
95
 20
-42.00000000000001
 40
6.499999999999996
100
AcDbArc
 50
117.4726968787283
 51
62.52730312127173
  0
DIMENSION
  5
13E
100
AcDbEntity
  8
guide
  6
ByLayer
 62
  256
370
   -1
100
AcDbDimension
  2
*D8
 10
101.5
 20
-54
 30
0
 11
95
 21
-52.125
 31
0
 70
   32
 71
    5
  3
Standard
 53
0
210
0
220
0
230
1
100
AcDbAlignedDimension
 13
88.5
 23
-42
 33
0
 14
101.5
 24
-42.00000000000001
 34
0
100
AcDbRotatedDimension
  0
DIMENSION
  5
13F
100
AcDbEntity
  8
guide
  6
ByLayer
 62
  256
370
   -1
100
AcDbDimension
  2
*D9
 10
97.99861818176296
 20
-34
 30
0
 11
95.00000000000001
 21
-32.125
 31
0
 70
   32
 71
    5
  3
Standard
 53
0
210
0
220
0
230
1
100
AcDbAlignedDimension
 13
92.00138181823706
 23
-36.233
 33
0
 14
97.99861818176296
 24
-36.233
 34
0
100
AcDbRotatedDimension
  0
MTEXT
  5
140
100
AcDbEntity
  8
guide
  6
ByLayer
 62
  256
370
   -1
100
AcDbMText
 10
115.5833333333334
 20
-38.66666666666667
 30
0
 40
2
 41
14.00000102857467
 71
    5
 72
    1
  1
13 mm\Pconnectors
  7

210
0
220
0
230
1
 50
0
 73
    2
 44
1
  0
LINE
  5
141
100
AcDbEntity
  8
0
  6
ByLayer
 62
  256
370
   -1
100
AcDbLine
 10
122.0013818182369
 20
-36.23299999999999
 11
127.9986181817632
 21
-36.233
  0
ARC
  5
142
100
AcDbEntity
  8
0
  6
ByLayer
 62
  256
370
   -1
100
AcDbCircle
 10
125
 20
-42.00000000000001
 40
6.499999999999996
100
AcDbArc
 50
117.4726968787283
 51
62.52730312127173
  0
DIMENSION
  5
143
100
AcDbEntity
  8
guide
  6
ByLayer
 62
  256
370
   -1
100
AcDbDimension
  2
*D10
 10
131.5
 20
-54
 30
0
 11
125
 21
-52.125
 31
0
 70
   32
 71
    5
  3
Standard
 53
0
210
0
220
0
230
1
100
AcDbAlignedDimension
 13
118.5
 23
-42
 33
0
 14
131.5
 24
-42.00000000000001
 34
0
100
AcDbRotatedDimension
  0
DIMENSION
  5
144
100
AcDbEntity
  8
guide
  6
ByLayer
 62
  256
370
   -1
100
AcDbDimension
  2
*D11
 10
127.998618181763
 20
-34
 30
0
 11
125
 21
-32.125
 31
0
 70
   32
 71
    5
  3
Standard
 53
0
210
0
220
0
230
1
100
AcDbAlignedDimension
 13
122.0013818182371
 23
-36.233
 33
0
 14
127.998618181763
 24
-36.233
 34
0
100
AcDbRotatedDimension
  0
MTEXT
  5
145
100
AcDbEntity
  8
guide
  6
ByLayer
 62
  256
370
   -1
100
AcDbMText
 10
145.5833333333334
 20
-38.66666666666667
 30
0
 40
2
 41
14.00000102857467
 71
    5
 72
    1
  1
13 mm\Pconnectors
  7

210
0
220
0
230
1
 50
0
 73
    2
 44
1
  0
LINE
  5
146
100
AcDbEntity
  8
0
  6
ByLayer
 62
  256
370
   -1
100
AcDbLine
 10
152.0013818182369
 20
-36.23299999999999
 11
157.9986181817632
 21
-36.233
  0
ARC
  5
147
100
AcDbEntity
  8
0
  6
ByLayer
 62
  256
370
   -1
100
AcDbCircle
 10
155
 20
-42.00000000000001
 40
6.499999999999996
100
AcDbArc
 50
117.4726968787283
 51
62.52730312127173
  0
DIMENSION
  5
148
100
AcDbEntity
  8
guide
  6
ByLayer
 62
  256
370
   -1
100
AcDbDimension
  2
*D12
 10
161.5
 20
-54
 30
0
 11
155
 21
-52.125
 31
0
 70
   32
 71
    5
  3
Standard
 53
0
210
0
220
0
230
1
100
AcDbAlignedDimension
 13
148.5
 23
-42
 33
0
 14
161.5
 24
-42.00000000000001
 34
0
100
AcDbRotatedDimension
  0
DIMENSION
  5
149
100
AcDbEntity
  8
guide
  6
ByLayer
 62
  256
370
   -1
100
AcDbDimension
  2
*D13
 10
157.998618181763
 20
-34
 30
0
 11
155
 21
-32.125
 31
0
 70
   32
 71
    5
  3
Standard
 53
0
210
0
220
0
230
1
100
AcDbAlignedDimension
 13
152.0013818182371
 23
-36.233
 33
0
 14
157.998618181763
 24
-36.233
 34
0
100
AcDbRotatedDimension
  0
LINE
  5
14A
100
AcDbEntity
  8
0
  6
ByLayer
 62
  256
370
   -1
100
AcDbLine
 10
32.00138181823687
 20
-71.23299999999999
 11
37.99861818176315
 21
-71.233
  0
ARC
  5
14B
100
AcDbEntity
  8
0
  6
ByLayer
 62
  256
370
   -1
100
AcDbCircle
 10
35.00000000000001
 20
-77.00000000000001
 40
6.499999999999996
100
AcDbArc
 50
117.4726968787283
 51
62.52730312127173
  0
DIMENSION
  5
14C
100
AcDbEntity
  8
guide
  6
ByLayer
 62
  256
370
   -1
100
AcDbDimension
  2
*D14
 10
41.5
 20
-89
 30
0
 11
35
 21
-87.125
 31
0
 70
   32
 71
    5
  3
Standard
 53
0
210
0
220
0
230
1
100
AcDbAlignedDimension
 13
28.5
 23
-77
 33
0
 14
41.5
 24
-77
 34
0
100
AcDbRotatedDimension
  0
DIMENSION
  5
14D
100
AcDbEntity
  8
guide
  6
ByLayer
 62
  256
370
   -1
100
AcDbDimension
  2
*D15
 10
37.99861818176296
 20
-69
 30
0
 11
35.00000000000001
 21
-67.125
 31
0
 70
   32
 71
    5
  3
Standard
 53
0
210
0
220
0
230
1
100
AcDbAlignedDimension
 13
32.00138181823706
 23
-71.233
 33
0
 14
37.99861818176296
 24
-71.233
 34
0
100
AcDbRotatedDimension
  0
LINE
  5
14E
100
AcDbEntity
  8
0
  6
ByLayer
 62
  256
370
   -1
100
AcDbLine
 10
62.00138181823687
 20
-71.23299999999999
 11
67.99861818176315
 21
-71.233
  0
ARC
  5
14F
100
AcDbEntity
  8
0
  6
ByLayer
 62
  256
370
   -1
100
AcDbCircle
 10
65
 20
-77.00000000000001
 40
6.499999999999996
100
AcDbArc
 50
117.4726968787283
 51
62.52730312127173
  0
DIMENSION
  5
150
100
AcDbEntity
  8
guide
  6
ByLayer
 62
  256
370
   -1
100
AcDbDimension
  2
*D16
 10
71.5
 20
-89
 30
0
 11
65
 21
-87.125
 31
0
 70
   32
 71
    5
  3
Standard
 53
0
210
0
220
0
230
1
100
AcDbAlignedDimension
 13
58.5
 23
-77
 33
0
 14
71.5
 24
-77
 34
0
100
AcDbRotatedDimension
  0
DIMENSION
  5
151
100
AcDbEntity
  8
guide
  6
ByLayer
 62
  256
370
   -1
100
AcDbDimension
  2
*D17
 10
67.99861818176296
 20
-69
 30
0
 11
65.00000000000001
 21
-67.125
 31
0
 70
   32
 71
    5
  3
Standard
 53
0
210
0
220
0
230
1
100
AcDbAlignedDimension
 13
62.00138181823706
 23
-71.233
 33
0
 14
67.99861818176296
 24
-71.233
 34
0
100
AcDbRotatedDimension
  0
LINE
  5
152
100
AcDbEntity
  8
0
  6
ByLayer
 62
  256
370
   -1
100
AcDbLine
 10
92.00138181823687
 20
-71.23299999999999
 11
97.99861818176315
 21
-71.233
  0
ARC
  5
153
100
AcDbEntity
  8
0
  6
ByLayer
 62
  256
370
   -1
100
AcDbCircle
 10
95
 20
-77.00000000000001
 40
6.499999999999996
100
AcDbArc
 50
117.4726968787283
 51
62.52730312127173
  0
DIMENSION
  5
154
100
AcDbEntity
  8
guide
  6
ByLayer
 62
  256
370
   -1
100
AcDbDimension
  2
*D18
 10
101.5
 20
-89
 30
0
 11
95
 21
-87.125
 31
0
 70
   32
 71
    5
  3
Standard
 53
0
210
0
220
0
230
1
100
AcDbAlignedDimension
 13
88.5
 23
-77
 33
0
 14
101.5
 24
-77
 34
0
100
AcDbRotatedDimension
  0
DIMENSION
  5
155
100
AcDbEntity
  8
guide
  6
ByLayer
 62
  256
370
   -1
100
AcDbDimension
  2
*D19
 10
97.99861818176296
 20
-69
 30
0
 11
95.00000000000001
 21
-67.125
 31
0
 70
   32
 71
    5
  3
Standard
 53
0
210
0
220
0
230
1
100
AcDbAlignedDimension
 13
92.00138181823706
 23
-71.233
 33
0
 14
97.99861818176296
 24
-71.233
 34
0
100
AcDbRotatedDimension
  0
LINE
  5
156
100
AcDbEntity
  8
0
  6
ByLayer
 62
  256
370
   -1
100
AcDbLine
 10
122.0013818182369
 20
-71.23299999999999
 11
127.9986181817632
 21
-71.233
  0
ARC
  5
157
100
AcDbEntity
  8
0
  6
ByLayer
 62
  256
370
   -1
100
AcDbCircle
 10
125
 20
-77.00000000000001
 40
6.499999999999996
100
AcDbArc
 50
117.4726968787283
 51
62.52730312127173
  0
DIMENSION
  5
158
100
AcDbEntity
  8
guide
  6
ByLayer
 62
  256
370
   -1
100
AcDbDimension
  2
*D20
 10
131.5
 20
-89
 30
0
 11
125
 21
-87.125
 31
0
 70
   32
 71
    5
  3
Standard
 53
0
210
0
220
0
230
1
100
AcDbAlignedDimension
 13
118.5
 23
-77
 33
0
 14
131.5
 24
-77
 34
0
100
AcDbRotatedDimension
  0
DIMENSION
  5
159
100
AcDbEntity
  8
guide
  6
ByLayer
 62
  256
370
   -1
100
AcDbDimension
  2
*D21
 10
127.998618181763
 20
-69
 30
0
 11
125
 21
-67.125
 31
0
 70
   32
 71
    5
  3
Standard
 53
0
210
0
220
0
230
1
100
AcDbAlignedDimension
 13
122.0013818182371
 23
-71.233
 33
0
 14
127.998618181763
 24
-71.233
 34
0
100
AcDbRotatedDimension
  0
LINE
  5
15A
100
AcDbEntity
  8
0
  6
ByLayer
 62
  256
370
   -1
100
AcDbLine
 10
152.0013818182369
 20
-71.23299999999999
 11
157.9986181817632
 21
-71.233
  0
ARC
  5
15B
100
AcDbEntity
  8
0
  6
ByLayer
 62
  256
370
   -1
100
AcDbCircle
 10
155
 20
-77.00000000000001
 40
6.499999999999996
100
AcDbArc
 50
117.4726968787283
 51
62.52730312127173
  0
DIMENSION
  5
15C
100
AcDbEntity
  8
guide
  6
ByLayer
 62
  256
370
   -1
100
AcDbDimension
  2
*D22
 10
161.5
 20
-89
 30
0
 11
155
 21
-87.125
 31
0
 70
   32
 71
    5
  3
Standard
 53
0
210
0
220
0
230
1
100
AcDbAlignedDimension
 13
148.5
 23
-77
 33
0
 14
161.5
 24
-77
 34
0
100
AcDbRotatedDimension
  0
DIMENSION
  5
15D
100
AcDbEntity
  8
guide
  6
ByLayer
 62
  256
370
   -1
100
AcDbDimension
  2
*D23
 10
157.998618181763
 20
-69
 30
0
 11
155
 21
-67.125
 31
0
 70
   32
 71
    5
  3
Standard
 53
0
210
0
220
0
230
1
100
AcDbAlignedDimension
 13
152.0013818182371
 23
-71.233
 33
0
 14
157.998618181763
 24
-71.233
 34
0
100
AcDbRotatedDimension
  0
ENDSEC
  0
SECTION
  2
OBJECTS
  0
DICTIONARY
  5
C
330
0
100
AcDbDictionary
281
    1
  3
ACAD_GROUP
350
D
  0
DICTIONARY
  5
D
330
C
100
AcDbDictionary
281
    1
  0
ENDSEC
  0
EOF
